<?xml version="1.0" encoding="UTF-8" standalone="no"?>
<!-- Created with Inkscape (http://www.inkscape.org/) -->

<svg
   width="231.16577mm"
   height="203.82741mm"
   viewBox="0 0 231.16577 203.82741"
   version="1.1"
   id="svg5"
   inkscape:version="1.2 (1:1.2+202206011326+fc4e4096c5)"
   sodipodi:docname="ttcg_coc.svg"
   inkscape:export-filename="/home/dormant/Documents/ttcg_coc.png"
   inkscape:export-xdpi="299.96655"
   inkscape:export-ydpi="299.96655"
   xmlns:inkscape="http://www.inkscape.org/namespaces/inkscape"
   xmlns:sodipodi="http://sodipodi.sourceforge.net/DTD/sodipodi-0.dtd"
   xmlns="http://www.w3.org/2000/svg"
   xmlns:svg="http://www.w3.org/2000/svg">
  <sodipodi:namedview
     id="namedview7"
     pagecolor="#ffffff"
     bordercolor="#666666"
     borderopacity="1.0"
     inkscape:pageshadow="2"
     inkscape:pageopacity="0.0"
     inkscape:pagecheckerboard="0"
     inkscape:document-units="mm"
     showgrid="false"
     inkscape:zoom="2.6975753"
     inkscape:cx="625.00572"
     inkscape:cy="494.33281"
     inkscape:window-width="1920"
     inkscape:window-height="1016"
     inkscape:window-x="0"
     inkscape:window-y="0"
     inkscape:window-maximized="1"
     inkscape:current-layer="layer1"
     inkscape:snap-page="true"
     inkscape:snap-object-midpoints="true"
     inkscape:snap-smooth-nodes="true"
     inkscape:snap-intersection-paths="true"
     inkscape:object-paths="false"
     inkscape:snap-global="true"
     inkscape:showpageshadow="2"
     inkscape:deskcolor="#d1d1d1" />
  <defs
     id="defs2">
    <marker
       style="overflow:visible;"
       id="Arrow2Mend"
       refX="0.0"
       refY="0.0"
       orient="auto"
       inkscape:stockid="Arrow2Mend"
       inkscape:isstock="true">
      <path
         transform="scale(0.6) rotate(180) translate(0,0)"
         d="M 8.7185878,4.0337352 L -2.2072895,0.016013256 L 8.7185884,-4.0017078 C 6.9730900,-1.6296469 6.9831476,1.6157441 8.7185878,4.0337352 z "
         style="stroke:context-stroke;fill-rule:evenodd;fill:context-stroke;stroke-width:0.62500000;stroke-linejoin:round;"
         id="path71951" />
    </marker>
    <marker
       style="overflow:visible;"
       id="Arrow2Lend"
       refX="0.0"
       refY="0.0"
       orient="auto"
       inkscape:stockid="Arrow2Lend"
       inkscape:isstock="true">
      <path
         transform="scale(1.1) rotate(180) translate(1,0)"
         d="M 8.7185878,4.0337352 L -2.2072895,0.016013256 L 8.7185884,-4.0017078 C 6.9730900,-1.6296469 6.9831476,1.6157441 8.7185878,4.0337352 z "
         style="stroke:context-stroke;fill-rule:evenodd;fill:context-stroke;stroke-width:0.62500000;stroke-linejoin:round;"
         id="path71945" />
    </marker>
    <marker
       style="overflow:visible;"
       id="Arrow1Mend"
       refX="0.0"
       refY="0.0"
       orient="auto"
       inkscape:stockid="Arrow1Mend"
       inkscape:isstock="true">
      <path
         transform="scale(0.4) rotate(180) translate(10,0)"
         style="fill-rule:evenodd;fill:context-stroke;stroke:context-stroke;stroke-width:1.0pt;"
         d="M 0.0,0.0 L 5.0,-5.0 L -12.5,0.0 L 5.0,5.0 L 0.0,0.0 z "
         id="path71933" />
    </marker>
    <marker
       style="overflow:visible;"
       id="Arrow1Lend"
       refX="0.0"
       refY="0.0"
       orient="auto"
       inkscape:stockid="Arrow1Lend"
       inkscape:isstock="true">
      <path
         transform="scale(0.8) rotate(180) translate(12.5,0)"
         style="fill-rule:evenodd;fill:context-stroke;stroke:context-stroke;stroke-width:1.0pt;"
         d="M 0.0,0.0 L 5.0,-5.0 L -12.5,0.0 L 5.0,5.0 L 0.0,0.0 z "
         id="path71927" />
    </marker>
    <clipPath
       clipPathUnits="userSpaceOnUse"
       id="clipPath76915">
      <circle
         style="fill:#000000;stroke:none;stroke-width:0.264583;stroke-miterlimit:4;stroke-dasharray:none"
         id="circle76917"
         cx="176.97168"
         cy="122.15723"
         r="12.264364" />
    </clipPath>
  </defs>
  <g
     inkscape:groupmode="layer"
     id="layer2"
     inkscape:label="Layer 2"
     sodipodi:insensitive="true">
    <rect
       style="fill:#ffffff;fill-opacity:1;stroke:#ffffff;stroke-width:0.0649999;stroke-miterlimit:4;stroke-dasharray:none"
       id="rect122932"
       width="231.16577"
       height="203.82739"
       x="0"
       y="0" />
  </g>
  <g
     inkscape:label="Layer 1"
     inkscape:groupmode="layer"
     id="layer1"
     transform="translate(0.13229118,0.13229118)">
    <g
       id="g11828"
       inkscape:export-filename="templates/adventurer.png"
       inkscape:export-xdpi="200"
       inkscape:export-ydpi="200">
      <path
         id="rect2646"
         style="fill:#ffe3e3;fill-opacity:1;stroke:none;stroke-width:0.108566;stroke-dasharray:none;stroke-dashoffset:0"
         d="M 12.08195 54.037529 L 12.08195 94.882064 C 12.08195 96.544063 13.420286 97.881881 15.082284 97.881881 L 71.770297 97.881881 C 73.432295 97.881881 74.77063 96.544063 74.77063 94.882064 L 74.77063 54.037529 L 12.08195 54.037529 z " />
      <path
         id="rect1209"
         style="fill:none;stroke:#000000;stroke-width:0.264583;stroke-miterlimit:4;stroke-dasharray:none"
         d="m 15.082057,10.193615 h 56.68838 c 1.662,0 3,1.338 3,3 v 81.688389 c 0,1.662 -1.338,3 -3,3 h -56.68838 c -1.662,0 -3,-1.338 -3,-3 V 13.193615 c 0,-1.662 1.338,-3 3,-3 z" />
      <path
         id="rect3095"
         style="fill:#d43437;stroke:#000000;stroke-width:0.264583;stroke-miterlimit:4;stroke-dasharray:none;fill-opacity:1"
         d="m 19.985205,10.193836 v 6.679224 h 54.785338 v -3.679407 c 0,-1.662 -1.338334,-2.999817 -3.000335,-2.999817 z"
         sodipodi:nodetypes="cccssc" />
      <path
         id="path3315"
         style="fill:#d43437;stroke:#000000;stroke-width:0.264583;stroke-miterlimit:4;stroke-dasharray:none;fill-opacity:1"
         d="m 13.876587,18.775951 v 5.273887 4.197675 4.461745 4.197676 4.152717 4.197678 4.063317 4.198194 3.761526 2.33009 l 1.275373,-1.275373 1.269172,-1.269172 1.269175,1.269172 1.274857,1.274857 v -3.857646 -2.04742 -4.569745 -3.691247 -4.570265 -3.780131 -4.570264 -4.089157 -4.570261 -4.059494 -1.028359 z"
         sodipodi:nodetypes="ccccccccccccccccccccccccccc" />
      <path
         id="rect4022"
         style="fill:#d43437;stroke:#000000;stroke-width:0.264583;stroke-miterlimit:4;stroke-dasharray:none;fill-opacity:1"
         d="m 20.75937,51.022351 v 6.03064 h 54.011173 v -6.03064 z" />
      <path
         id="path2269"
         style="fill:#ffaaaa;stroke-width:0.26458333;stroke:#000000;stroke-dasharray:none;fill-opacity:1"
         d="m 20.026846,51.767153 v 4.541035 H 70.50274 v -4.541035 z"
         sodipodi:nodetypes="ccccc" />
      <path
         id="path5522"
         style="fill:#d4aa00;stroke:#000000;stroke-width:0.264583;stroke-linecap:butt;stroke-linejoin:miter;stroke-miterlimit:4;stroke-dasharray:none;stroke-opacity:1"
         d="m 20.759886,18.593531 c -0.320188,0.116023 -0.664557,0.18242 -1.025776,0.18242 h -0.768946 v 1.017508 h -0.01085 v 35.056775 h 0.01085 v 4.759706 l -1.274857,-1.274857 -1.269175,-1.269172 -1.269172,1.269172 -1.275373,1.275373 v -2.690272 h 0.02119 V 19.793459 h -0.02119 v -1.017508 h -1.794724 v 1.017508 37.126725 h 5.29e-4 v 4.484478 2.538346 0.0088 l 1.794205,-1.794205 v -0.0088 l 2.544546,-2.544546 2.544032,2.54403 v 0.0093 l 1.794206,1.794206 v -0.0093 l 5.29e-4,5.29e-4 v -2.538346 l -5.29e-4,-5.29e-4 v -6.553912 h 0.01035 V 19.793459 h -0.0098 z"
         sodipodi:nodetypes="csccccccccccccccccccccccccccccccccccccc" />
      <path
         id="rect745"
         style="fill:#ffaaaa;stroke-width:0.26458333;stroke:#000000;stroke-dasharray:none;fill-opacity:1"
         d="m 21.886598,10.987444 v 5.091678 l 47.131412,0 h 2.371948 2.545581 v -2.545581 c 0,-1.410407 -1.135171,-2.546097 -2.545581,-2.546097 z"
         sodipodi:nodetypes="cccccssc" />
      <path
         id="path7567"
         style="fill:#cccccc;fill-opacity:1;stroke:#000000;stroke-width:0.264583;stroke-miterlimit:4;stroke-dasharray:none"
         d="m 15.082198,10.193836 c -1.662001,0 -3.000335,1.337817 -3.000335,2.999817 v 7.175272 a 7.3977645,7.3977645 0 0 0 4.418851,1.471229 7.3977645,7.3977645 0 0 0 7.397998,-7.397482 7.3977645,7.3977645 0 0 0 -1.342035,-4.248836 z" />
      <circle
         style="fill:#999999;fill-opacity:1;stroke:#000000;stroke-width:0.264583;stroke-miterlimit:4;stroke-dasharray:none"
         id="path4328"
         cx="16.500946"
         cy="27.189848"
         r="3.360584" />
      <circle
         style="fill:#999999;fill-opacity:1;stroke:#000000;stroke-width:0.264583;stroke-miterlimit:4;stroke-dasharray:none"
         id="circle4410"
         cx="16.500946"
         cy="35.613579"
         r="3.360584" />
      <circle
         style="fill:#999999;fill-opacity:1;stroke:#000000;stroke-width:0.264583;stroke-miterlimit:4;stroke-dasharray:none"
         id="circle4412"
         cx="16.500946"
         cy="44.037312"
         r="3.360584" />
      <circle
         style="fill:#999999;fill-opacity:1;stroke:#000000;stroke-width:0.264583;stroke-miterlimit:4;stroke-dasharray:none"
         id="circle4414"
         cx="16.500946"
         cy="52.46104"
         r="3.360584" />
      <path
         id="circle10193"
         style="fill:#999999;stroke:#000000;stroke-width:0.264583;stroke-miterlimit:4;stroke-dasharray:none"
         d="m 15.082198,10.193836 c -1.662001,0 -3.000335,1.337817 -3.000335,2.999817 v 4.734078 a 5.6289487,5.6289487 0 0 0 4.418851,2.143538 5.6289487,5.6289487 0 0 0 5.629116,-5.628597 5.6289487,5.6289487 0 0 0 -1.937351,-4.248836 z" />
      <path
         id="rect38678"
         style="fill:#7f2527;fill-opacity:1;stroke:#000000;stroke-width:0.264583"
         d="m 72.939575,16.873089 v 77.470206 a 1.4999999,1.4999999 0 0 1 -1.472779,1.473296 H 15.413371 A 1.4999999,1.4999999 0 0 1 13.913204,94.316422 V 62.117871 l -0.03617,0.03617 v 0.0036 l -1.794206,1.794206 -5.29e-4,5.29e-4 V 94.88227 c 0,0.127823 0.0099,0.253037 0.02584,0.376203 0.0024,0.01945 0.006,0.03854 0.0088,0.05788 0.01764,0.117819 0.03974,0.233987 0.0708,0.34675 0.06841,0.248385 0.168236,0.483806 0.293005,0.702799 h -0.0062 c 0.515016,0.906418 1.486476,1.516187 2.607593,1.516187 h 56.688542 c 1.121116,0 2.093092,-0.609769 2.608109,-1.516187 h -0.0067 c 0.12477,-0.218993 0.224592,-0.454414 0.293005,-0.702799 0.03106,-0.112763 0.05316,-0.228931 0.0708,-0.34675 0.0028,-0.01934 0.0064,-0.03842 0.0088,-0.05788 0.01593,-0.123166 0.02585,-0.24838 0.02585,-0.376203 V 16.87306 Z" />
      <path
         id="circle17181"
         style="fill:#cccccc;fill-opacity:1;stroke:#000000;stroke-width:0.264583;stroke-miterlimit:4;stroke-dasharray:none"
         d="m 71.603811,48.038555 a 5.9994611,5.9994611 0 0 0 -5.999633,5.999115 5.9994611,5.9994611 0 0 0 5.999633,5.999636 5.9994611,5.9994611 0 0 0 3.166732,-0.908473 V 48.942374 a 5.9994611,5.9994611 0 0 0 -3.166732,-0.903819 z" />
      <path
         id="circle17183"
         style="fill:#999999;fill-opacity:1;stroke:#000000;stroke-width:0.264583;stroke-miterlimit:4;stroke-dasharray:none"
         d="m 71.603811,49.472576 a 4.5649813,4.5649813 0 0 0 -4.565096,4.565094 4.5649813,4.5649813 0 0 0 4.565096,4.565097 4.5649813,4.5649813 0 0 0 3.166732,-1.280025 v -6.572726 a 4.5649813,4.5649813 0 0 0 -3.166732,-1.27744 z" />
      <path
         style="fill:#7f2527;stroke:#000000;stroke-width:0.264583px;stroke-linecap:butt;stroke-linejoin:miter;stroke-opacity:1;fill-opacity:1"
         d="m 69.34611,16.87306 -3.588459,3.588462 H 30.294266 L 26.705805,16.87306 Z"
         id="path38554" />
      <text
         xml:space="preserve"
         style="font-style:normal;font-weight:normal;font-size:4.55959px;line-height:1.25;font-family:sans-serif;fill:#000000;fill-opacity:1;stroke:none;stroke-width:0.11399"
         x="30.098925"
         y="14.699002"
         id="text71609"><tspan
           sodipodi:role="line"
           id="tspan71607"
           style="stroke-width:0.11399"
           x="30.098925"
           y="14.699002">приключенец</tspan></text>
    </g>
    <g
       id="g11850"
       inkscape:export-filename="templates/action.png"
       inkscape:export-xdpi="200"
       inkscape:export-ydpi="200">
      <path
         id="path6954"
         style="fill:#ffe3e3;fill-opacity:1;stroke:none;stroke-width:0.108566;stroke-dasharray:none;stroke-dashoffset:0"
         d="m 84.356341,53.082829 v 40.844535 c 0,1.661999 1.338336,2.999817 3.000334,2.999817 h 56.688015 c 1.662,0 3.00033,-1.337818 3.00033,-2.999817 V 53.082829 Z" />
      <path
         id="path54513"
         style="fill:none;fill-opacity:1;stroke:#000000;stroke-width:0.264583;stroke-miterlimit:4;stroke-dasharray:none"
         d="m 87.356337,9.054637 h 56.688383 c 1.662,0 3,1.338 3,3 v 81.688389 c 0,1.662001 -1.338,3 -3,3 H 87.356337 c -1.662,0 -3,-1.337999 -3,-3 V 12.054637 c 0,-1.662 1.338,-3 3,-3 z" />
      <path
         id="path47565"
         style="fill:#d43437;stroke:#000000;stroke-width:0.264583;stroke-miterlimit:4;stroke-dasharray:none;fill-opacity:1"
         d="m 86.150867,17.636973 v 5.273888 4.197675 4.461745 4.197675 4.152717 4.197678 4.063317 4.198194 3.761526 2.33009 l 1.275373,-1.275373 1.269172,-1.269172 1.269175,1.269172 1.274857,1.274857 v -3.857646 -2.04742 -4.569745 -3.691247 -4.570265 -3.780131 -4.570264 -4.089157 -4.57026 -4.059494 -1.02836 z"
         sodipodi:nodetypes="ccccccccccccccccccccccccccc" />
      <path
         id="path47567"
         style="fill:#d43437;fill-opacity:1;stroke:#000000;stroke-width:0.264583;stroke-miterlimit:4;stroke-dasharray:none"
         d="m 93.03365,49.883373 v 6.03064 h 54.01118 v -6.03064 z" />
      <path
         id="path6417"
         style="fill:#ffaaaa;fill-opacity:1;stroke:#000000;stroke-width:0.264583;stroke-dasharray:none"
         d="m 92.129973,50.628314 v 4.541035 h 50.475897 v -4.541035 z"
         sodipodi:nodetypes="ccccc" />
      <path
         id="path47569"
         style="fill:#d4aa00;fill-opacity:1;stroke:#000000;stroke-width:0.264583;stroke-linecap:butt;stroke-linejoin:miter;stroke-miterlimit:4;stroke-dasharray:none;stroke-opacity:1"
         d="m 93.034166,17.454553 c -0.320188,0.116024 -0.664557,0.18242 -1.025776,0.18242 h -0.768946 v 1.017509 h -0.01085 v 35.056774 h 0.01085 v 4.759706 l -1.274857,-1.274856 -1.269175,-1.269172 -1.269172,1.269172 -1.275373,1.275373 v -2.690272 h 0.02119 V 18.654482 h -0.02119 v -1.017508 h -1.794724 v 1.017508 37.126725 h 5.29e-4 v 4.484478 2.538346 0.0088 l 1.794205,-1.794205 v -0.0088 l 2.544546,-2.544546 2.544032,2.54403 v 0.0093 l 1.794206,1.794206 v -0.0093 l 5.29e-4,5.29e-4 v -2.538346 l -5.29e-4,-5.29e-4 v -6.553912 h 0.01035 V 18.654482 h -0.0098 z"
         sodipodi:nodetypes="csccccccccccccccccccccccccccccccccccccc" />
      <circle
         style="fill:#999999;fill-opacity:1;stroke:#000000;stroke-width:0.264583;stroke-miterlimit:4;stroke-dasharray:none"
         id="circle47573"
         cx="88.775223"
         cy="26.050869"
         r="3.360584" />
      <circle
         style="fill:#999999;fill-opacity:1;stroke:#000000;stroke-width:0.264583;stroke-miterlimit:4;stroke-dasharray:none"
         id="circle47575"
         cx="88.775223"
         cy="34.474602"
         r="3.360584" />
      <circle
         style="fill:#999999;fill-opacity:1;stroke:#000000;stroke-width:0.264583;stroke-miterlimit:4;stroke-dasharray:none"
         id="circle47577"
         cx="88.775223"
         cy="42.898335"
         r="3.360584" />
      <circle
         style="fill:#999999;fill-opacity:1;stroke:#000000;stroke-width:0.264583;stroke-miterlimit:4;stroke-dasharray:none"
         id="circle47579"
         cx="88.775223"
         cy="51.322063"
         r="3.360584" />
      <path
         style="fill:#7f2527;fill-opacity:1;stroke:#000000;stroke-width:0.264583px;stroke-linecap:butt;stroke-linejoin:miter;stroke-opacity:1"
         d="m 141.6204,15.734083 -3.58846,3.588462 h -35.46339 l -3.588465,-3.588462 z"
         id="path47589" />
      <path
         id="path47563"
         style="fill:#d43437;fill-opacity:1;stroke:#000000;stroke-width:0.264583;stroke-miterlimit:4;stroke-dasharray:none"
         d="m 92.259485,9.0548586 v 6.6792244 h 54.785345 v -3.679407 c 0,-1.662 -1.33834,-2.9998174 -3.00034,-2.9998174 z"
         sodipodi:nodetypes="cccssc" />
      <path
         id="path6419"
         style="fill:#ffaaaa;fill-opacity:1;stroke:#000000;stroke-width:0.264583;stroke-dasharray:none"
         d="m 94.160776,9.8484667 v 5.0916773 h 47.131414 2.37195 2.54558 v -2.545581 c 0,-1.410407 -1.13517,-2.5460963 -2.54558,-2.5460963 z"
         sodipodi:nodetypes="cccccssc" />
      <path
         id="rect47651"
         style="fill:#cccccc;fill-opacity:1;stroke:#000000;stroke-width:0.264583;stroke-miterlimit:4;stroke-dasharray:none"
         d="m 87.356533,9.0546793 c -1.662001,0 -3.000335,1.3378167 -3.000335,2.9998167 v 8.498935 H 95.651795 V 14.877838 9.0546793 Z"
         sodipodi:nodetypes="ssccccs" />
      <path
         id="path47561"
         style="fill:#999999;fill-opacity:1;stroke:#000000;stroke-width:0.264583;stroke-miterlimit:4;stroke-dasharray:none"
         d="m 87.356533,9.0546793 c -1.662001,0 -3.000335,1.3378167 -3.000335,2.9998167 v 6.694394 h 9.491057 V 13.975568 9.0546793 Z"
         sodipodi:nodetypes="ssccccs" />
      <text
         xml:space="preserve"
         style="font-style:normal;font-weight:normal;font-size:4.55959px;line-height:1.25;font-family:sans-serif;fill:#000000;fill-opacity:1;stroke:none;stroke-width:0.11399"
         x="103.16157"
         y="13.593572"
         id="text73585"><tspan
           sodipodi:role="line"
           id="tspan73583"
           style="stroke-width:0.11399"
           x="103.16157"
           y="13.593572">действие/подг</tspan></text>
      <path
         id="path168765"
         style="fill:#7f2527;fill-opacity:1;stroke:#000000;stroke-width:0.264583"
         d="m 145.2139,15.734083 v 77.470206 a 1.4999999,1.4999999 0 0 1 -1.47277,1.473294 H 87.687701 a 1.4999999,1.4999999 0 0 1 -1.500167,-1.500169 v -32.19855 l -0.03617,0.03617 v 0.0036 l -1.794206,1.794205 -5.16e-4,5.19e-4 v 30.929894 c 0,0.127824 0.0099,0.253038 0.02584,0.376204 0.0024,0.01945 0.006,0.03854 0.0088,0.05788 0.01764,0.117819 0.03974,0.233987 0.0708,0.34675 0.06841,0.248385 0.168235,0.483806 0.293005,0.702799 h -0.0062 c 0.515016,0.906418 1.486475,1.516187 2.607593,1.516187 H 144.045 c 1.12112,0 2.0931,-0.609769 2.60811,-1.516187 h -0.007 c 0.12477,-0.218993 0.2246,-0.454414 0.29301,-0.702799 0.0311,-0.112763 0.0532,-0.228931 0.0708,-0.34675 0.003,-0.01934 0.006,-0.03842 0.009,-0.05788 0.0159,-0.123166 0.0258,-0.24838 0.0258,-0.376204 v -78.00917 z" />
      <path
         id="rect68759"
         style="fill:#cccccc;fill-opacity:1;stroke:#000000;stroke-width:0.249395;stroke-miterlimit:4;stroke-dasharray:none"
         d="m 138.43145,47.435797 v 10.92595 h 8.61343 v -10.92595 z" />
      <path
         id="path68883"
         style="fill:#999999;fill-opacity:1;stroke:#000000;stroke-width:0.264583;stroke-miterlimit:4;stroke-dasharray:none"
         d="m 139.78537,48.78972 v 8.218104 h 7.25951 V 48.78972 Z" />
    </g>
    <g
       id="g12363"
       inkscape:export-filename="templates/artifact.png"
       inkscape:export-xdpi="200"
       inkscape:export-ydpi="200">
      <path
         id="path8877"
         style="fill:#ffe3e3;fill-opacity:1;stroke:none;stroke-width:0.108566;stroke-dasharray:none;stroke-dashoffset:0"
         d="m 156.14101,52.925298 v 40.844535 c 0,1.661999 1.33834,2.999817 3.00034,2.999817 h 56.68801 c 1.662,0 3.00033,-1.337818 3.00033,-2.999817 V 52.925298 Z" />
      <path
         id="path108034"
         style="fill:none;fill-opacity:1;stroke:#000000;stroke-width:0.264583;stroke-miterlimit:4;stroke-dasharray:none"
         d="m 159.14145,9.08196 h 56.68838 c 1.66201,0 3,1.338 3,3 v 81.68839 c 0,1.662 -1.33799,3 -3,3 h -56.68838 c -1.66199,0 -2.99999,-1.338 -2.99999,-3 V 12.08196 c 0,-1.662 1.338,-3 2.99999,-3 z" />
      <path
         id="path210463"
         style="fill:#d43437;fill-opacity:1;stroke:#000000;stroke-width:0.264583"
         d="m 156.14167,52.094329 v 1.830899 h 62.68817 v -1.830899 z" />
      <path
         id="path108036"
         style="fill:#d43437;fill-opacity:1;stroke:#000000;stroke-width:0.264583;stroke-miterlimit:4;stroke-dasharray:none"
         d="m 159.13115,9.08224 c -1.65714,0.006 -2.98948,1.34131 -2.98948,2.99982 v 3.67936 h 62.68816 v -3.67936 c 0,-0.20775 -0.0206,-0.41052 -0.0604,-0.60616 -0.17926,-0.88023 -0.74174,-1.61827 -1.50689,-2.03295 -1.3e-4,-8e-5 -3.8e-4,7e-5 -5.2e-4,0 -0.085,-0.0461 -0.1722,-0.0883 -0.262,-0.1261 -0.17944,-0.0756 -0.36831,-0.13432 -0.56378,-0.17415 -1.7e-4,-3e-5 -3.6e-4,4e-5 -5.2e-4,0 -0.19566,-0.0398 -0.3979,-0.0605 -0.60565,-0.0605 z" />
      <path
         id="path8199"
         style="fill:#ffaaaa;fill-opacity:1;stroke:#000000;stroke-width:0.264583;stroke-dasharray:none"
         d="M 157.97257,9.8758835 V 14.967562 H 216.9987 V 9.8758835 Z"
         sodipodi:nodetypes="ccccc" />
      <path
         style="fill:#7f2527;fill-opacity:1;stroke:#000000;stroke-width:0.264583px;stroke-linecap:butt;stroke-linejoin:miter;stroke-opacity:1"
         d="m 208.80591,15.76131 -3.58846,3.58846 h -35.46339 l -3.58846,-3.58846 z"
         id="path108042" />
      <text
         xml:space="preserve"
         style="font-style:normal;font-weight:normal;font-size:4.55959px;line-height:1.25;font-family:sans-serif;fill:#000000;fill-opacity:1;stroke:none;stroke-width:0.11399"
         x="176.5406"
         y="13.681149"
         id="text108046"><tspan
           sodipodi:role="line"
           id="tspan108044"
           style="stroke-width:0.11399"
           x="176.5406"
           y="13.681149">артефакт</tspan></text>
      <path
         id="path194017"
         style="fill:#7f2527;fill-opacity:1;stroke:#000000;stroke-width:0.264583"
         d="m 157.97257,9.3165813 c -1.07803,0.4539695 -1.8309,1.5182987 -1.8309,2.7652057 v 81.688563 0 c 0,0 0,0 0,0.0026 8e-5,0.12692 0.01,0.251275 0.0258,0.373618 5e-5,0 -4e-5,0 0,0 0.002,0.01958 0.006,0.03847 0.009,0.05786 2e-5,1.86e-4 -3e-5,0 0,0 0.0176,0.117475 0.0399,0.233257 0.0708,0.345705 5e-5,1.59e-4 -4e-5,0 0,0 0.0684,0.248391 0.16824,0.483817 0.29301,0.702786 h -0.006 c 0.002,0.004 0.005,0.0074 0.007,0.01138 0.0582,0.101415 0.12245,0.19902 0.19172,0.292497 0.009,0.0127 0.0187,0.02567 0.0284,0.03823 0.15032,0.196242 0.32431,0.373063 0.5178,0.526574 0.0123,0.0098 0.0253,0.01852 0.0377,0.02791 0.0802,0.06159 0.16377,0.118718 0.25012,0.172085 0.0256,0.01588 0.0509,0.03201 0.077,0.04702 0.0957,0.05522 0.19452,0.105833 0.29663,0.150389 0.008,0.0034 0.015,0.0077 0.0227,0.01085 0.10825,0.04614 0.22043,0.08398 0.33487,0.117316 0.033,0.0095 0.0668,0.01746 0.10025,0.02593 0.0847,0.02143 0.17092,0.03961 0.25838,0.05374 0.0396,0.0063 0.0792,0.0127 0.11937,0.01746 0.10993,0.01323 0.22149,0.0217 0.33487,0.02275 0.0101,1.06e-4 0.0198,0.0026 0.03,0.0026 h 56.68853 c 0.0101,0 0.0199,-0.0026 0.03,-0.0026 0.11338,0 0.22493,-0.0095 0.33487,-0.02275 0.0401,-0.0048 0.0797,-0.01111 0.11937,-0.01746 0.0875,-0.01402 0.17367,-0.03223 0.25838,-0.05374 0.0336,-0.0085 0.0676,-0.01614 0.10077,-0.02593 0.11363,-0.03312 0.22526,-0.07107 0.33279,-0.116787 0.0109,-0.0048 0.0212,-0.01032 0.032,-0.01508 0.1002,-0.04403 0.19691,-0.09348 0.29094,-0.147796 0.0251,-0.01455 0.0493,-0.03029 0.0739,-0.04548 0.0846,-0.05223 0.16673,-0.108294 0.24546,-0.16846 0.0154,-0.01164 0.0314,-0.02249 0.0465,-0.03461 0.19145,-0.152241 0.36354,-0.327316 0.51263,-0.521414 0.0111,-0.01455 0.0217,-0.02929 0.0326,-0.04392 0.0685,-0.09266 0.1325,-0.188992 0.19017,-0.289401 0.002,-0.004 0.005,-0.0074 0.007,-0.01138 h -0.006 c 0.12477,-0.218969 0.2246,-0.454396 0.293,-0.702787 5e-5,-1.58e-4 -4e-5,0 0,0 0.031,-0.112447 0.0532,-0.228229 0.0708,-0.345704 3e-5,-1.59e-4 -2e-5,0 0,0 0.003,-0.01931 0.006,-0.03836 0.009,-0.05786 4e-5,0 -5e-5,0 0,0 0.0158,-0.122344 0.0258,-0.246698 0.0258,-0.373619 0,0 0,0 0,-0.0026 v 0 -81.688564 c 0,-1.246907 -0.75287,-2.3112356 -1.8309,-2.765205 v 83.914786 c -0.0143,0.807482 -0.66528,1.458754 -1.47278,1.473279 h -56.05343 c -0.82856,8e-5 -1.50026,-0.671618 -1.50017,-1.500161 z" />
      <path
         id="rect209285"
         style="fill:#7f2527;fill-opacity:1;stroke:#000000;stroke-width:0.264583"
         d="m 207.88012,9.08197 a 31.344018,31.344018 0 0 1 9.11882,13.204878 V 9.3165813 c -0.17913,-0.07539 -0.36766,-0.1338791 -0.56276,-0.1736328 h -5.3e-4 C 216.24,9.1031473 216.03776,9.08197 215.83001,9.08197 Z m -48.74897,5.292e-4 c -0.41141,0.00159 -0.80263,0.085683 -1.15858,0.2356458 v 13.026594 a 31.344018,31.344018 0 0 1 9.13174,-13.2622398 z m -1.15858,34.2444228 v 12.614216 h 8.34264 a 31.344018,31.344018 0 0 1 -8.34264,-12.614216 z m 59.02637,0 a 31.344018,31.344018 0 0 1 -8.34264,12.614216 h 8.34264 z" />
      <path
         id="path215296"
         style="fill:#7f2527;fill-opacity:1;stroke:#000000;stroke-width:0.264583;stroke-miterlimit:4;stroke-dasharray:none"
         d="m 165.01503,50.263434 a 27.799728,27.799728 0 0 0 5.51543,5.677691 h 33.91111 a 27.799728,27.799728 0 0 0 5.5149,-5.677691 z" />
      <path
         id="path216172"
         style="fill:#999999;fill-opacity:1;stroke:#000000;stroke-width:0.264583;stroke-miterlimit:4;stroke-dasharray:none"
         d="m 171.91556,49.71659 a 6.2802403,9.2768421 60 0 0 0.2075,4.39445 6.2802403,9.2768421 60 0 0 3.70196,2.37693 6.2802403,9.2768421 60 0 0 -0.2075,-4.39445 6.2802403,9.2768421 60 0 0 -3.70196,-2.37693 z" />
      <path
         id="path216451"
         style="fill:#999999;fill-opacity:1;stroke:#000000;stroke-width:0.264583;stroke-miterlimit:4;stroke-dasharray:none"
         d="m 179.66618,49.32603 a 6.2802403,9.2768421 75 0 0 -0.93695,4.29842 6.2802403,9.2768421 75 0 0 2.96063,3.25408 6.2802403,9.2768421 75 0 0 0.93694,-4.29842 6.2802403,9.2768421 75 0 0 -2.96062,-3.25408 z" />
      <path
         id="path216453"
         style="fill:#999999;fill-opacity:1;stroke:#000000;stroke-width:0.264583;stroke-miterlimit:4;stroke-dasharray:none"
         d="m 187.48575,49.19282 a 9.2768421,6.2802403 0 0 0 -2.01753,3.90946 9.2768421,6.2802403 0 0 0 2.01753,3.90946 9.2768421,6.2802403 0 0 0 2.01752,-3.90946 9.2768421,6.2802403 0 0 0 -2.01752,-3.90946 z" />
      <path
         id="path216455"
         style="fill:#999999;fill-opacity:1;stroke:#000000;stroke-width:0.264583;stroke-miterlimit:4;stroke-dasharray:none"
         d="m 195.30532,49.32603 a 9.2768421,6.2802403 15 0 0 -2.96063,3.25408 9.2768421,6.2802403 15 0 0 0.93695,4.29842 9.2768421,6.2802403 15 0 0 2.96062,-3.25408 9.2768421,6.2802403 15 0 0 -0.93694,-4.29842 z" />
      <path
         id="path216457"
         style="fill:#999999;fill-opacity:1;stroke:#000000;stroke-width:0.264583;stroke-miterlimit:4;stroke-dasharray:none"
         d="m 203.05594,49.71659 a 9.2768421,6.2802403 30 0 0 -3.70196,2.37693 9.2768421,6.2802403 30 0 0 -0.2075,4.39445 9.2768421,6.2802403 30 0 0 3.70196,-2.37693 9.2768421,6.2802403 30 0 0 0.2075,-4.39445 z" />
      <path
         id="circle226489"
         style="fill:#cccccc;fill-opacity:1;stroke:#000000;stroke-width:0.264583;stroke-miterlimit:4;stroke-dasharray:none"
         d="m 214.26267,84.569862 a 7.3977645,7.3977645 0 0 0 -7.39748,7.398014 7.3977645,7.3977645 0 0 0 1.77715,4.802293 h 7.18768 c 1.662,0 2.99982,-1.337839 2.99982,-2.999819 v -7.621773 a 7.3977645,7.3977645 0 0 0 -4.56717,-1.578715 z" />
      <path
         id="circle226491"
         style="fill:#999999;fill-opacity:1;stroke:#000000;stroke-width:0.264583;stroke-miterlimit:4;stroke-dasharray:none"
         d="m 214.26267,86.33876 a 5.6289487,5.6289487 0 0 0 -5.6286,5.629116 5.6289487,5.6289487 0 0 0 2.69907,4.802293 h 4.49688 c 1.662,0 2.99982,-1.337839 2.99982,-2.999819 v -5.092726 a 5.6289487,5.6289487 0 0 0 -4.56717,-2.338864 z" />
    </g>
    <text
       xml:space="preserve"
       style="font-style:normal;font-weight:normal;font-size:6.47002px;line-height:1.25;font-family:sans-serif;fill:#000000;fill-opacity:1;stroke:none;stroke-width:0.161751"
       x="163.2448"
       y="107.24661"
       id="text1408"
       inkscape:export-filename="/home/dormant/Documents/circle38764.png"
       inkscape:export-xdpi="299.96655"
       inkscape:export-ydpi="299.96655"><tspan
         sodipodi:role="line"
         id="tspan1406"
         style="stroke-width:0.161751"
         x="163.2448"
         y="107.24661">colour-coding</tspan></text>
    <text
       xml:space="preserve"
       style="font-style:normal;font-weight:normal;font-size:3.96489px;line-height:1.25;font-family:sans-serif;fill:#000000;fill-opacity:1;stroke:none;stroke-width:0.0991225"
       x="156.47638"
       y="113.06302"
       id="text7574"
       inkscape:export-filename="/home/dormant/Documents/circle38764.png"
       inkscape:export-xdpi="299.96655"
       inkscape:export-ydpi="299.96655"><tspan
         sodipodi:role="line"
         id="tspan7572"
         style="stroke-width:0.0991225"
         x="156.47638"
         y="113.06302">карты со специализацией</tspan><tspan
         sodipodi:role="line"
         style="stroke-width:0.0991225"
         x="156.47638"
         y="118.01913"
         id="tspan12111"> - цвета специализаций</tspan></text>
    <text
       xml:space="preserve"
       style="font-style:normal;font-weight:normal;font-size:2.8933px;line-height:1.25;font-family:sans-serif;fill:#000000;fill-opacity:1;stroke:none;stroke-width:0.0723328"
       x="163.91443"
       y="147.39124"
       id="text14449"
       inkscape:export-filename="/home/dormant/Documents/circle38764.png"
       inkscape:export-xdpi="299.96655"
       inkscape:export-ydpi="299.96655"><tspan
         sodipodi:role="line"
         id="tspan14445"
         style="stroke-width:0.0723328"
         x="163.91443"
         y="147.39124">несколько специализаций</tspan><tspan
         sodipodi:role="line"
         style="stroke-width:0.0723328"
         x="163.91443"
         y="151.00786"
         id="tspan14447"> - общий цвет</tspan><tspan
         sodipodi:role="line"
         style="stroke-width:0.0723328"
         x="163.91443"
         y="154.62448"
         id="tspan239262">серебро с </tspan><tspan
         sodipodi:role="line"
         style="stroke-width:0.0723328"
         x="163.91443"
         y="158.2411"
         id="tspan240812">царапинами</tspan></text>
    <text
       xml:space="preserve"
       style="font-style:normal;font-weight:normal;font-size:3.96489px;line-height:1.25;font-family:sans-serif;fill:#000000;fill-opacity:1;stroke:none;stroke-width:0.0991225"
       x="156.47638"
       y="167.39429"
       id="text16167"
       inkscape:export-filename="/home/dormant/Documents/circle38764.png"
       inkscape:export-xdpi="299.96655"
       inkscape:export-ydpi="299.96655"><tspan
         sodipodi:role="line"
         style="stroke-width:0.0991225"
         x="156.47638"
         y="167.39429"
         id="tspan16165">артефакты - тёмный </tspan><tspan
         sodipodi:role="line"
         style="stroke-width:0.0991225"
         x="156.47638"
         y="172.3504"
         id="tspan20909">металл с рунами</tspan></text>
    <text
       xml:space="preserve"
       style="font-style:normal;font-weight:normal;font-size:3.96489px;line-height:1.25;font-family:sans-serif;fill:#000000;fill-opacity:1;stroke:none;stroke-width:0.0991225"
       x="156.47638"
       y="180.45999"
       id="text23557"
       inkscape:export-filename="/home/dormant/Documents/circle38764.png"
       inkscape:export-xdpi="299.96655"
       inkscape:export-ydpi="299.96655"><tspan
         sodipodi:role="line"
         style="stroke-width:0.0991225"
         x="156.47638"
         y="180.45999"
         id="tspan23555">покровители: цвета по школам </tspan><tspan
         sodipodi:role="line"
         style="stroke-width:0.0991225"
         x="156.47638"
         y="185.41611"
         id="tspan37193">Магии + немагические (не боги</tspan><tspan
         sodipodi:role="line"
         style="stroke-width:0.0991225"
         x="156.47638"
         y="190.37222"
         id="tspan37459">или демоны)</tspan></text>
    <g
       id="g12915">
      <circle
         style="fill:#f7971c;fill-opacity:1;stroke:#000000;stroke-width:0.264583;stroke-miterlimit:4;stroke-dasharray:none"
         id="circle38764"
         cx="160.80429"
         cy="125.02702"
         r="3.360584"
         inkscape:export-filename="/home/dormant/Documents/circle38764.png"
         inkscape:export-xdpi="299.96655"
         inkscape:export-ydpi="299.96655" />
      <path
         id="rect41981"
         style="fill:#000000;stroke:none;stroke-width:0.264583"
         d="m 158.66467,122.88737 c -1e-5,0.51797 0.47613,0.97235 0.47613,0.97235 l 2.32582,2.32582 c 0.13479,-0.0416 0.22816,-0.11348 0.27439,-0.15532 l -2.42594,-2.42594 c -0.0612,-0.0612 -0.14765,-0.21411 -0.14765,-0.21411 0,0 0.15254,0.0868 0.21376,0.148 l 2.42594,2.42594 c 0.0418,-0.046 0.11392,-0.13938 0.15568,-0.27405 l -2.32618,-2.32618 c 0,0 -0.45402,-0.47651 -0.97199,-0.47649 z m 2.44312,3.35372 -0.0917,0.34239 c 0.59992,0.14173 1.05237,-0.29233 1.05237,-0.29233 0,0 0.43407,-0.45245 0.29233,-1.05238 l -0.34239,0.0917 c 0.12006,0.44802 -0.19257,0.71803 -0.19257,0.71803 0,0 -0.26996,0.31266 -0.71802,0.19257 z m 0.89268,0.19476 0.73082,0.73081 0.21267,-0.21266 -0.73082,-0.73082 c -0.0526,0.0765 -0.0935,0.11913 -0.0935,0.11913 0,0 -0.0425,0.0411 -0.11914,0.0935 z"
         inkscape:export-filename="/home/dormant/Documents/circle38764.png"
         inkscape:export-xdpi="299.96655"
         inkscape:export-ydpi="299.96655" />
    </g>
    <g
       id="g12919">
      <circle
         style="fill:#8b63d6;fill-opacity:1;stroke:#000000;stroke-width:0.264583;stroke-miterlimit:4;stroke-dasharray:none"
         id="circle38882"
         cx="169.01506"
         cy="125.02702"
         r="3.360584"
         inkscape:export-filename="/home/dormant/Documents/circle38764.png"
         inkscape:export-xdpi="299.96655"
         inkscape:export-ydpi="299.96655" />
      <path
         id="path45545"
         style="fill:#000000;stroke:none;stroke-width:0.10882;stroke-linecap:butt;stroke-linejoin:miter;stroke-miterlimit:4;stroke-dasharray:none;stroke-opacity:1"
         d="m 170.94373,123.09871 c -1.47373,0.8111 -2.53461,1.62199 -2.91905,1.92973 0.0284,0.0578 0.0575,0.1122 0.0871,0.16264 0.51217,-0.35672 1.17584,-0.78684 1.95556,-1.21597 -0.42913,0.77973 -0.85917,1.44346 -1.21597,1.95557 0.0503,0.0296 0.10458,0.0584 0.16225,0.0867 0.30784,-0.38433 1.11904,-1.44491 1.93011,-2.91864 z m -1.28794,1.28795 c -0.559,0.30765 -1.05867,0.61543 -1.48637,0.89706 0.13519,0.2089 0.25724,0.33126 0.25724,0.33126 0,0 0.12275,0.12259 0.33206,0.25804 0.28164,-0.42769 0.58942,-0.92735 0.89707,-1.48636 z m -1.88758,0.0592 -0.22426,-0.035 c 0,0 0.007,0.77296 0.64336,1.42512 l -3.9e-4,4e-4 c 0.003,0.003 0.007,0.007 0.009,0.009 0.003,0.003 0.007,0.007 0.01,0.01 l 3.9e-4,-3.9e-4 c 0.6524,0.63701 1.42473,0.64298 1.42473,0.64298 l -0.035,-0.22427 c -0.71787,-0.0902 -1.22829,-0.60003 -1.22829,-0.60003 0,0 -0.50944,-0.51004 -0.59964,-1.22789 z m 0.27476,1.34838 c -0.53584,0.40118 -1.03183,1.07246 -1.03183,1.07246 l 0.16463,0.16462 c 0,0 0.67087,-0.49641 1.07199,-1.0323 -0.0327,-0.0281 -0.0649,-0.0571 -0.0965,-0.0888 l -3.9e-4,4e-4 c -0.004,-0.004 -0.007,-0.007 -0.01,-0.01 -0.003,-0.003 -0.007,-0.007 -0.009,-0.009 l 3.9e-4,-4e-4 c -0.0312,-0.032 -0.0612,-0.0642 -0.0892,-0.0969 z"
         inkscape:export-filename="/home/dormant/Documents/circle38764.png"
         inkscape:export-xdpi="299.96655"
         inkscape:export-ydpi="299.96655" />
    </g>
    <text
       xml:space="preserve"
       style="font-style:normal;font-weight:normal;font-size:1.37851px;line-height:1.25;font-family:sans-serif;fill:#000000;fill-opacity:1;stroke:none;stroke-width:0.0344627"
       x="157.81311"
       y="129.92049"
       id="text47315"
       inkscape:export-filename="/home/dormant/Documents/circle38764.png"
       inkscape:export-xdpi="299.96655"
       inkscape:export-ydpi="299.96655"><tspan
         sodipodi:role="line"
         id="tspan47313"
         style="stroke-width:0.0344627"
         x="157.81311"
         y="129.92049">воитель</tspan></text>
    <text
       xml:space="preserve"
       style="font-style:normal;font-weight:normal;font-size:1.37851px;line-height:1.25;font-family:sans-serif;fill:#000000;fill-opacity:1;stroke:none;stroke-width:0.0344627"
       x="166.59383"
       y="129.92049"
       id="text48713"
       inkscape:export-filename="/home/dormant/Documents/circle38764.png"
       inkscape:export-xdpi="299.96655"
       inkscape:export-ydpi="299.96655"><tspan
         sodipodi:role="line"
         id="tspan48711"
         style="stroke-width:0.0344627"
         x="166.59383"
         y="129.92049">убийца</tspan></text>
    <text
       xml:space="preserve"
       style="font-style:normal;font-weight:normal;font-size:0.982878px;line-height:1.25;font-family:sans-serif;fill:#000000;fill-opacity:1;stroke:none;stroke-width:0.0245719"
       x="175.13678"
       y="129.81134"
       id="text50616"
       inkscape:export-filename="/home/dormant/Documents/circle38764.png"
       inkscape:export-xdpi="299.96655"
       inkscape:export-ydpi="299.96655"><tspan
         sodipodi:role="line"
         id="tspan50614"
         style="stroke-width:0.0245719"
         x="175.13678"
         y="129.81134">рэйнджер</tspan></text>
    <text
       xml:space="preserve"
       style="font-style:normal;font-weight:normal;font-size:0.800241px;line-height:1.25;font-family:sans-serif;fill:#000000;fill-opacity:1;stroke:none;stroke-width:0.020006"
       x="183.4024"
       y="129.76144"
       id="text54321"
       inkscape:export-filename="/home/dormant/Documents/circle38764.png"
       inkscape:export-xdpi="299.96655"
       inkscape:export-ydpi="299.96655"><tspan
         sodipodi:role="line"
         id="tspan54319"
         style="stroke-width:0.020006"
         x="183.4024"
         y="129.76144">заклинатель</tspan></text>
    <text
       xml:space="preserve"
       style="font-style:normal;font-weight:normal;font-size:1.04307px;line-height:1.25;font-family:sans-serif;fill:#000000;fill-opacity:1;stroke:none;stroke-width:0.0260768"
       x="157.62477"
       y="140.6494"
       id="text57277"
       inkscape:export-filename="/home/dormant/Documents/circle38764.png"
       inkscape:export-xdpi="299.96655"
       inkscape:export-ydpi="299.96655"><tspan
         sodipodi:role="line"
         id="tspan57275"
         style="stroke-width:0.0260768"
         x="157.62477"
         y="140.6494">спаситель</tspan></text>
    <text
       xml:space="preserve"
       style="font-style:normal;font-weight:normal;font-size:1.04307px;line-height:1.25;font-family:sans-serif;fill:#000000;fill-opacity:1;stroke:none;stroke-width:0.0260768"
       x="175.82094"
       y="140.71855"
       id="text60650"
       inkscape:export-filename="/home/dormant/Documents/circle38764.png"
       inkscape:export-xdpi="299.96655"
       inkscape:export-ydpi="299.96655"><tspan
         sodipodi:role="line"
         id="tspan60648"
         style="stroke-width:0.0260768"
         x="175.82094"
         y="140.71855">эрудит</tspan></text>
    <text
       xml:space="preserve"
       style="font-style:normal;font-weight:normal;font-size:1.04307px;line-height:1.25;font-family:sans-serif;fill:#000000;fill-opacity:1;stroke:none;stroke-width:0.0260768"
       x="166.43982"
       y="140.58215"
       id="text63324"
       inkscape:export-filename="/home/dormant/Documents/circle38764.png"
       inkscape:export-xdpi="299.96655"
       inkscape:export-ydpi="299.96655"><tspan
         sodipodi:role="line"
         id="tspan63322"
         style="stroke-width:0.0260768"
         x="166.43982"
         y="140.58215">дипломат</tspan></text>
    <text
       xml:space="preserve"
       style="font-style:normal;font-weight:normal;font-size:1.04307px;line-height:1.25;font-family:sans-serif;fill:#000000;fill-opacity:1;stroke:none;stroke-width:0.0260768"
       x="182.83392"
       y="140.55727"
       id="text66902"
       inkscape:export-filename="/home/dormant/Documents/circle38764.png"
       inkscape:export-xdpi="299.96655"
       inkscape:export-ydpi="299.96655"><tspan
         sodipodi:role="line"
         id="tspan66900"
         style="stroke-width:0.0260768"
         x="182.83392"
         y="140.55727">манипулятор</tspan></text>
    <g
       id="path71574" />
    <g
       id="g12923">
      <circle
         style="fill:#50b34a;fill-opacity:1;stroke:#000000;stroke-width:0.264583;stroke-miterlimit:4;stroke-dasharray:none"
         id="circle38884"
         cx="177.63499"
         cy="125.02702"
         r="3.360584"
         inkscape:export-filename="/home/dormant/Documents/circle38764.png"
         inkscape:export-xdpi="299.96655"
         inkscape:export-ydpi="299.96655" />
      <path
         id="path73727"
         style="color:#000000;fill:#000000;stroke:none;stroke-width:1;-inkscape-stroke:none"
         d="m 176.97168,122.15723 c -0.0798,0.19886 -0.0782,0.40255 0.006,0.56999 0.0192,0.0382 0.0422,0.074 0.0682,0.10797 v 2.14199 l -0.33227,-1e-5 -0.31834,-0.24027 -0.0387,0.0528 0.24808,0.18755 h -0.0687 l -0.31834,-0.24027 -0.0387,0.0528 0.24807,0.18755 h -0.0687 l -0.31834,-0.24029 -0.0386,0.0527 0.3142,0.2377 -0.31416,0.23723 0.0386,0.0528 0.31888,-0.24026 h 0.0687 l -0.24855,0.1876 0.0387,0.0528 0.31881,-0.24032 h 0.0687 l -0.24855,0.1876 0.0387,0.0528 0.31881,-0.24032 h 0.33176 v 2.14147 c -0.0257,0.0342 -0.049,0.0698 -0.0682,0.10797 -0.0842,0.16747 -0.086,0.37115 -0.006,0.57 l 0.293,-0.11886 c -0.054,-0.13476 -0.0465,-0.22421 -0.004,-0.30852 0.0424,-0.0843 0.13406,-0.17012 0.28318,-0.24443 0.17665,-0.0881 0.55241,-0.28561 0.79168,-0.61133 0.1196,-0.16287 0.20449,-0.3674 0.19069,-0.59583 -0.0129,-0.21288 -0.11228,-0.4345 -0.31058,-0.65784 v -0.28267 h 0.75086 l -0.20772,0.23515 0.25218,-0.0915 0.5333,-0.19379 -0.53329,-0.19378 -0.25218,-0.0915 0.20822,0.23567 h -0.75086 l 1e-5,-0.28318 c 0.1983,-0.22333 0.29766,-0.44497 0.31057,-0.65785 0.0138,-0.22843 -0.0716,-0.43296 -0.1912,-0.59581 -0.2393,-0.3257 -0.61449,-0.52328 -0.79118,-0.61135 -0.14911,-0.0743 -0.24073,-0.16012 -0.28318,-0.24443 -0.0424,-0.0843 -0.0501,-0.17371 0.004,-0.3085 z m 0.17416,0.78548 c 0.0735,0.0665 0.16079,0.12318 0.25785,0.17159 0.16117,0.0804 0.49717,0.27256 0.67541,0.5152 0.0891,0.12134 0.13973,0.24721 0.13124,0.38706 -0.008,0.13983 -0.0754,0.30553 -0.26767,0.50746 -0.032,0.0404 -0.0381,0.0555 -0.045,0.10952 v 0.34364 l -0.75189,10e-6 z m -1e-5,2.13424 h 0.75138 v 0.34313 c 0.007,0.054 0.0134,0.0692 0.0455,0.10955 0.19217,0.20206 0.25971,0.36761 0.26768,0.50748 0.008,0.13982 -0.0421,0.26571 -0.13124,0.38705 -0.17827,0.24261 -0.51419,0.43485 -0.67542,0.51521 -0.0971,0.0484 -0.18427,0.10522 -0.25785,0.17159 z"
         inkscape:export-filename="/home/dormant/Documents/circle38764.png"
         inkscape:export-xdpi="299.96655"
         inkscape:export-ydpi="299.96655" />
    </g>
    <g
       id="g12927">
      <circle
         style="fill:#ffffff;fill-opacity:1;stroke:#000000;stroke-width:0.264583;stroke-miterlimit:4;stroke-dasharray:none"
         id="circle38886"
         cx="186.2182"
         cy="125.02702"
         r="3.360584"
         inkscape:export-filename="/home/dormant/Documents/circle38764.png"
         inkscape:export-xdpi="299.96655"
         inkscape:export-ydpi="299.96655" />
      <path
         id="path75405"
         style="fill:#000000;fill-opacity:1;stroke:none;stroke-width:0.264583;stroke-miterlimit:4;stroke-dasharray:none"
         d="m 186.3846,121.67139 c -0.0373,0.22305 -0.0726,0.4739 -0.10491,0.74724 -0.02,-0.002 -0.04,-0.003 -0.0605,-0.003 -0.0212,0 -0.0424,0.001 -0.063,0.003 -0.0318,-0.2721 -0.0666,-0.52208 -0.10335,-0.74466 a 3.360584,3.360584 0 0 0 -0.15917,0.0114 c 0.0383,0.22831 0.0746,0.4869 0.10749,0.76998 -0.24331,0.0897 -0.41858,0.32341 -0.41858,0.59686 0,0.2155 0.10827,0.40663 0.27337,0.52141 -0.65216,0.16281 -1.13688,0.75342 -1.13688,1.45521 0,0.70179 0.48472,1.29128 1.13688,1.45366 -0.1651,0.11478 -0.27337,0.3054 -0.27337,0.5209 0,0.27345 0.17527,0.50756 0.41858,0.59738 -0.0329,0.28331 -0.0692,0.54204 -0.10749,0.77049 a 3.360584,3.360584 0 0 0 0.15917,0.0114 c 0.0368,-0.22266 0.0716,-0.47289 0.10335,-0.74517 0.0207,0.002 0.0419,0.003 0.063,0.003 0.0203,0 0.0401,-0.001 0.06,-0.003 0.0322,0.27259 0.0677,0.52263 0.1049,0.74517 a 3.360584,3.360584 0 0 0 0.15968,-0.0114 c -0.0383,-0.22831 -0.0746,-0.48686 -0.10748,-0.76997 0.24332,-0.0895 0.41754,-0.32405 0.41754,-0.5979 0,-0.21539 -0.10794,-0.40558 -0.27233,-0.52038 0.65204,-0.16217 1.13584,-0.75217 1.13584,-1.45418 0,-0.70201 -0.4838,-1.29313 -1.13584,-1.45572 0.16439,-0.1148 0.27233,-0.30551 0.27233,-0.5209 0,-0.27385 -0.17422,-0.508 -0.41754,-0.59738 0.0329,-0.28375 0.0691,-0.54282 0.10748,-0.77153 a 3.360584,3.360584 0 0 0 -0.15916,-0.0119 z m -0.16537,0.90433 c 0.0141,0 0.0281,8.9e-4 0.0419,0.002 -0.0156,0.14318 -0.0302,0.29071 -0.0434,0.44752 -0.0132,-0.15637 -0.028,-0.30386 -0.0434,-0.447 0.0148,-10e-4 0.0298,-0.003 0.045,-0.003 z m 0.19844,0.0429 c 0.16448,0.0749 0.27802,0.24015 0.27802,0.43357 0,0.22131 -0.14892,0.40603 -0.35243,0.46044 0.0197,-0.32381 0.0452,-0.62017 0.0744,-0.89401 z m -0.39791,10e-4 c 0.0291,0.27327 0.0547,0.56944 0.0744,0.89245 -0.20316,-0.0547 -0.35192,-0.23894 -0.35192,-0.45992 0,-0.19293 0.11355,-0.3574 0.2775,-0.43253 z m 0.0837,1.0728 c 0.0216,0.4077 0.0351,0.85001 0.0351,1.33635 0,0.48584 -0.0136,0.92762 -0.0351,1.3348 -0.68671,-0.0586 -1.22421,-0.63268 -1.22421,-1.3348 0,-0.70209 0.53754,-1.27759 1.22421,-1.33635 z m 0.23048,0 c 0.68711,0.0583 1.22473,0.63391 1.22473,1.33635 0,0.70246 -0.5376,1.2767 -1.22473,1.3348 -0.0216,-0.40718 -0.0351,-0.84896 -0.0351,-1.3348 0,-0.48622 0.0136,-0.92872 0.0351,-1.33635 z m 0.009,2.85099 c 0.20351,0.0543 0.35243,0.23862 0.35243,0.45992 0,0.19335 -0.11365,0.35851 -0.27802,0.43356 -0.0292,-0.27357 -0.0547,-0.56995 -0.0744,-0.89348 z m -0.24908,5.1e-4 c -0.0197,0.32333 -0.0453,0.61955 -0.0744,0.89297 -0.16405,-0.0752 -0.2775,-0.24055 -0.2775,-0.43356 0,-0.22098 0.14876,-0.40481 0.35192,-0.45941 z m 0.1235,0.48783 c 0.0132,0.15641 0.0279,0.30361 0.0434,0.44648 -0.0138,0.001 -0.0278,0.002 -0.0419,0.002 -0.0151,0 -0.0302,-0.001 -0.045,-0.003 0.0154,-0.14281 0.0302,-0.29006 0.0434,-0.44597 z"
         inkscape:export-filename="/home/dormant/Documents/circle38764.png"
         inkscape:export-xdpi="299.96655"
         inkscape:export-ydpi="299.96655" />
    </g>
    <g
       id="g12943">
      <circle
         style="fill:#d43437;fill-opacity:1;stroke:#000000;stroke-width:0.265;stroke-miterlimit:4;stroke-dasharray:none"
         id="circle38888"
         cx="160.46786"
         cy="135.84869"
         r="3.360584"
         inkscape:export-filename="/home/dormant/Documents/circle38764.png"
         inkscape:export-xdpi="299.96655"
         inkscape:export-ydpi="299.96655" />
      <path
         id="path122615"
         style="fill:#000000;stroke:none;stroke-width:0.480671px;stroke-linecap:butt;stroke-linejoin:miter;stroke-opacity:1"
         d="m 159.4178,134.2026 c -0.47769,0.0113 -0.91364,0.4016 -0.91364,1.04955 0,1.32685 1.9637,2.85771 1.9637,2.85771 0,0 1.96371,-1.53086 1.96371,-2.85771 0,-0.66342 -0.45685,-1.05655 -0.94775,-1.04955 -0.59642,-0.006 -1.00096,0.40662 -1.01596,0.81752 -0.015,-0.4109 -0.41954,-0.82354 -1.01595,-0.81752 -0.008,-1.1e-4 -0.0151,-8e-5 -0.0227,0 -0.004,4e-5 -0.008,-9e-5 -0.0114,0 z m 2.39262,0.78032 c 0.0309,0.16726 0.039,0.32739 0.0295,0.47955 l 0.16019,0.1819 -0.0465,0.0429 -0.12144,-0.13695 c -3e-5,3.5e-4 4e-5,6.9e-4 0,0.001 l -0.11937,-0.13539 c 4e-5,-1.5e-4 -4e-5,-3.8e-4 0,-5.2e-4 l -0.13643,-0.154 0.0491,-0.0429 0.10748,0.12248 c 0.0606,-0.22755 0.0775,-0.35812 0.0775,-0.35812 z m -0.11937,0.50591 0.1297,0.14624 c -0.0178,0.11713 -0.0453,0.22919 -0.0801,0.33487 l 0.0977,0.16846 -0.0568,0.0315 -0.0692,-0.11937 c -1.3e-4,3.7e-4 -3.8e-4,6.7e-4 -5.1e-4,0.001 l -0.13178,-0.22789 -0.0837,-0.14418 0.0568,-0.0331 0.0558,0.0966 c 0.0325,-0.0929 0.0589,-0.17621 0.0822,-0.25425 z m -0.14108,0.41341 0.13177,0.22583 c -0.0373,0.0894 -0.0793,0.17381 -0.1235,0.25269 l 0.0765,0.18914 -0.0605,0.0253 -5.2e-4,-0.002 h 5.2e-4 l -0.0574,-0.14108 -0.0956,-0.23564 -0.06,-0.14883 0.061,-0.0232 0.0357,0.0873 c 0.034,-0.0803 0.0639,-0.15634 0.092,-0.22996 z m -0.16588,0.39584 0.0899,0.22273 c -0.0551,0.0856 -0.11169,0.16368 -0.16691,0.23254 l 0.0486,0.21498 -0.0625,0.0139 -0.0377,-0.16692 -0.0388,-0.17208 -0.0486,-0.21394 0.0625,-0.0134 0.0315,0.13849 c 0.0445,-0.0884 0.0842,-0.17329 0.12196,-0.25632 z m -0.21394,0.43098 0.0331,0.14573 c -0.14784,0.16477 -0.26303,0.25528 -0.26303,0.25528 0.0851,-0.13809 0.16033,-0.27126 0.22996,-0.40101 z"
         inkscape:export-filename="/home/dormant/Documents/circle38764.png"
         inkscape:export-xdpi="299.96655"
         inkscape:export-ydpi="299.96655" />
    </g>
    <g
       id="g12939">
      <circle
         style="fill:#ebe121;fill-opacity:1;stroke:#000000;stroke-width:0.264583;stroke-miterlimit:4;stroke-dasharray:none"
         id="circle38890"
         cx="169.06883"
         cy="135.84869"
         r="3.360584"
         inkscape:export-filename="/home/dormant/Documents/circle38764.png"
         inkscape:export-xdpi="299.96655"
         inkscape:export-ydpi="299.96655" />
      <path
         id="path165376"
         style="color:#000000;fill:#000000;stroke:#000000;stroke-width:0.1;stroke-miterlimit:4;stroke-dasharray:none"
         d="m 169.05431,133.34416 c -0.17449,0.009 -0.31549,0.15348 -0.31554,0.33002 v 0.2426 c -0.0605,-0.0704 -0.14996,-0.1153 -0.24983,-0.11542 -0.18225,-2.6e-4 -0.33051,0.1483 -0.33054,0.33054 v 1.34956 c -0.0607,-0.0719 -0.15137,-0.1179 -0.25243,-0.1179 -0.002,0 -0.005,-6e-5 -0.009,0 -0.17831,0.004 -0.3217,0.15115 -0.32175,0.33055 v 1.15919 c 0,0.002 0,0.004 0,0.006 0,0.82447 0.66888,1.49387 1.49336,1.49387 0.82447,0 1.49387,-0.6694 1.49387,-1.49387 v -2.03908 c -4e-5,-0.182 -0.14852,-0.33048 -0.33054,-0.33054 -0.10107,-1.4e-4 -0.19174,0.0456 -0.25242,0.1174 v -0.47485 c -4e-5,-0.18201 -0.148,-0.33049 -0.33002,-0.33054 -0.002,0 -0.006,-6e-5 -0.009,0 -0.0956,0.002 -0.18068,0.046 -0.2395,0.11331 v -0.24053 c -3e-5,-0.18201 -0.14852,-0.32996 -0.33053,-0.33002 -0.006,-1e-5 -0.0111,-2.6e-4 -0.0171,0 z m 0.0171,0.0802 c 0.13906,5e-5 0.25032,0.11084 0.25036,0.24985 v 0.42157 c -10e-4,0.0124 -0.002,0.0239 -0.002,0.0363 v 1.25437 0.0776 0.60468 h 0.0802 0.002 v -1.96872 c 0.0156,-0.12387 0.11999,-0.21849 0.24829,-0.21829 0.13907,3e-5 0.25187,0.11133 0.25191,0.25036 v 1.48716 0.0932 0.2876 0.0481 0.0781 0.17846 h 0.0781 v -0.0781 -0.12622 -0.32692 -0.0977 -0.85556 c 4e-5,-0.13923 0.11319,-0.25264 0.25242,-0.25242 0.13907,3e-5 0.25033,0.11343 0.25037,0.25242 v 1.83475 l 0.004,0.12622 v 0.0781 c 0,0.78259 -0.63473,1.41577 -1.41731,1.41577 -0.76733,0 -1.3902,-0.60882 -1.41421,-1.37024 h -5.2e-4 v -0.0275 c -8e-5,-0.006 -5.2e-4,-0.0124 -5.2e-4,-0.0181 0,-0.006 4.4e-4,-0.0111 5.2e-4,-0.0176 v -0.46037 l 0.001,-0.68693 c 5e-5,-0.13924 0.1106,-0.25058 0.24985,-0.25037 0.13906,5e-5 0.25239,0.11134 0.25242,0.25037 v 0.0812 0.35072 0.72728 h 5.2e-4 0.0776 v -0.72728 -0.0781 -0.0481 -0.28656 -0.0192 -0.0745 -1.48766 c 5e-5,-0.13924 0.11319,-0.25058 0.25243,-0.25037 0.13906,4e-5 0.24981,0.11134 0.24984,0.25037 v 1.27093 0.0787 0.58968 0.0481 0.0781 h 0.0802 v -0.73297 -0.0776 -1.25489 -0.45779 c 5e-5,-0.13923 0.11319,-0.25004 0.25243,-0.24984 z"
         inkscape:export-filename="/home/dormant/Documents/circle38764.png"
         inkscape:export-xdpi="299.96655"
         inkscape:export-ydpi="299.96655" />
    </g>
    <g
       id="g12935">
      <circle
         style="fill:#2d71c8;fill-opacity:1;stroke:#000000;stroke-width:0.264583;stroke-miterlimit:4;stroke-dasharray:none"
         id="circle38892"
         cx="177.84158"
         cy="135.84869"
         r="3.360584"
         inkscape:export-filename="/home/dormant/Documents/circle38764.png"
         inkscape:export-xdpi="299.96655"
         inkscape:export-ydpi="299.96655" />
      <path
         id="path167870"
         style="color:#000000;fill:#000000;stroke-width:0.264583;-inkscape-stroke:none"
         d="m 176.13765,134.1761 c -0.0713,1.8e-4 -0.11472,0.003 -0.11472,0.003 l -0.077,0.005 v 0.14159 c -0.0513,5.1e-4 -0.0623,-2.8e-4 -0.11317,0.002 -0.007,5.3e-4 -0.0367,0.001 -0.0367,0.001 l -0.0853,0.007 v 3.21944 l 0.1142,-0.0274 c 0,0 0.21344,-0.052 0.57878,-0.0155 0.36535,0.0365 0.87468,0.16286 1.44745,0.52813 l 0.0496,0.0315 0.0496,-0.0315 c 0.57277,-0.36527 1.08211,-0.49163 1.44746,-0.52813 0.36534,-0.0365 0.57878,0.0155 0.57878,0.0155 l 0.1142,0.0274 v -3.21944 l -0.0853,-0.007 c 0,0 -0.0297,-5e-4 -0.0367,-0.001 -0.0509,-0.002 -0.0619,-0.002 -0.11317,-0.002 v -0.14159 l -0.077,-0.005 c 0,0 -0.0434,-0.003 -0.11472,-0.003 v 5.2e-4 c -0.30194,-7.4e-4 -1.13802,0.0517 -1.76321,0.58187 -0.62517,-0.53013 -1.46125,-0.58261 -1.7632,-0.58187 z m 0,0.16536 h 5.2e-4 c 0.28774,-7.2e-4 1.1061,0.0504 1.68052,0.55294 v 2.50218 c -0.48193,-0.28039 -0.91659,-0.39368 -1.23713,-0.42582 -0.28062,-0.0281 -0.39253,0.002 -0.46096,0.0139 v -2.64273 c 0.004,-1.3e-4 0.007,-5e-4 0.0171,-5.2e-4 z m 3.52589,0 h 5.2e-4 c 0.0101,2e-5 0.013,3.9e-4 0.0171,5.2e-4 v 2.64273 c -0.0684,-0.012 -0.18034,-0.0421 -0.46096,-0.0139 -0.32054,0.0322 -0.7552,0.14543 -1.23713,0.42582 v -2.50218 c 0.57442,-0.50254 1.39278,-0.55366 1.68052,-0.55294 z m -3.28611,0.29094 -0.002,0.0992 c 0,0 0.55876,0.006 1.19941,0.36174 l 0.0486,-0.0879 c -0.66181,-0.3668 -1.24592,-0.37311 -1.24592,-0.37311 z m 3.04685,0 c 0,0 -0.58411,0.006 -1.24592,0.37311 l 0.0486,0.0879 c 0.64066,-0.35573 1.19941,-0.36174 1.19941,-0.36174 z m -3.04685,0.4532 -0.002,0.0992 c 0,0 0.55876,0.006 1.19941,0.36174 l 0.0486,-0.0884 c -0.66181,-0.3668 -1.24592,-0.37259 -1.24592,-0.37259 z m 3.04685,0 c 0,0 -0.58411,0.006 -1.24592,0.37259 l 0.0486,0.0884 c 0.64066,-0.35573 1.19941,-0.36174 1.19941,-0.36174 z m -3.04685,0.45114 -0.002,0.10129 c 0,0 0.55876,0.006 1.19941,0.36121 l 0.0486,-0.0878 c -0.66181,-0.36681 -1.24592,-0.37466 -1.24592,-0.37466 z m 3.04685,0 c 0,0 -0.58411,0.008 -1.24592,0.37466 l 0.0486,0.0878 c 0.64066,-0.35522 1.19941,-0.36121 1.19941,-0.36121 z m -3.04685,0.45269 -0.002,0.0997 c 0,0 0.55876,0.008 1.19941,0.36329 l 0.0486,-0.0879 c -0.66181,-0.3668 -1.24592,-0.37517 -1.24592,-0.37517 z m 3.04685,0 c 0,0 -0.58411,0.008 -1.24592,0.37517 l 0.0486,0.0879 c 0.64066,-0.35528 1.19941,-0.36329 1.19941,-0.36329 z m -3.04685,0.4532 -0.002,0.0997 c 0,0 0.55876,0.006 1.19941,0.36122 l 0.0486,-0.0858 c -0.66181,-0.3668 -1.24592,-0.37517 -1.24592,-0.37517 z m 3.04685,0 c 0,0 -0.58411,0.008 -1.24592,0.37517 l 0.0486,0.0858 c 0.64066,-0.35522 1.19941,-0.36122 1.19941,-0.36122 z"
         inkscape:export-filename="/home/dormant/Documents/circle38764.png"
         inkscape:export-xdpi="299.96655"
         inkscape:export-ydpi="299.96655" />
    </g>
    <g
       id="g12931">
      <circle
         style="fill:#333333;fill-opacity:1;stroke:#000000;stroke-width:0.264583;stroke-miterlimit:4;stroke-dasharray:none"
         id="circle38898"
         cx="186.1935"
         cy="135.84863"
         r="3.360584"
         inkscape:export-filename="/home/dormant/Documents/circle38764.png"
         inkscape:export-xdpi="299.96655"
         inkscape:export-ydpi="299.96655" />
      <path
         id="path168638"
         style="color:#000000;fill:#ffffff;stroke-width:0.897002;-inkscape-stroke:none"
         d="m 184.92272,133.39159 -9e-4,4.6e-4 -0.21972,0.12701 h -4.6e-4 l -4.7e-4,4.7e-4 0.28601,0.49506 c -0.2021,0.82354 -0.77442,1.47876 -0.99383,1.70628 h -0.5632 v 8.9e-4 0.0218 0.23177 4.6e-4 4.6e-4 4.7e-4 h 0.57201 c 0.6119,0.58655 0.89339,1.40916 0.98085,1.71324 l -0.28184,0.48764 v 4.6e-4 l 9e-4,4.7e-4 0.019,0.0111 0.20073,0.11588 8.9e-4,4.7e-4 v -4.7e-4 l 0.286,-0.49552 h 4.7e-4 c 0.81414,-0.23655 1.66705,-0.0683 1.97374,0.008 l 0.28138,0.48764 h 4.5e-4 l 4.7e-4,-4.6e-4 0.19886,-0.11496 0.0213,-0.012 4.6e-4,-4.7e-4 -0.286,-0.49552 c 0.2021,-0.82355 0.77442,-1.4783 0.99383,-1.70582 h 0.5632 v -9e-4 -0.0223 -0.23176 -9e-4 h -0.57248 c -0.61183,-0.58676 -0.89275,-1.40992 -0.97992,-1.7137 l 0.28137,-0.48764 -4.6e-4,-4.7e-4 h -4.6e-4 l -0.0186,-0.0111 -0.20071,-0.11588 h -4.7e-4 l -4.7e-4,-4.7e-4 h -4.5e-4 l -0.28555,0.49552 h -4.6e-4 c -0.81414,0.23657 -1.66752,0.0681 -1.97422,-0.008 z m 0.4158,0.72034 c 0.37284,0.0762 1.03089,0.161 1.70349,0.0116 l -0.14925,0.25913 c -0.57307,0.16125 -1.16941,0.0497 -1.40221,-0.007 l -0.0366,-0.0635 z m 1.93156,0.12793 c 0.12047,0.36094 0.37571,0.97325 0.84132,1.48101 h -0.178 -0.12052 c -0.42618,-0.41567 -0.62754,-0.98776 -0.69485,-1.21772 z m -2.14619,0.0116 0.058,0.10013 0.0913,0.15899 c -0.14676,0.57644 -0.54135,1.0366 -0.70689,1.2103 h -0.19145 -0.1131 c 0.25234,-0.28484 0.65526,-0.81224 0.86218,-1.46942 z m 0.46354,0.29203 c 0.26994,0.0538 0.73229,0.11081 1.20706,0.009 l -0.14694,0.25495 -0.0487,0.0844 c -0.31301,0.0577 -0.61846,0.0257 -0.81629,-0.0102 z m 1.43326,0.12748 c 0.0884,0.26075 0.27021,0.69013 0.59611,1.05038 h -0.16085 l -0.2313,-4.7e-4 c -0.20645,-0.24224 -0.33126,-0.52273 -0.3991,-0.712 l 0.0125,-0.0213 z m -1.64926,0.009 0.0413,0.0718 0.15436,0.26792 c -0.10655,0.29992 -0.28723,0.54841 -0.41719,0.7018 h -0.3903 c 0.18159,-0.20698 0.46299,-0.57913 0.61188,-1.04157 z m 0.48439,0.32818 c 0.18128,0.0265 0.41986,0.0428 0.67121,0.008 l -0.0487,0.0849 -0.10754,0.18589 v 4.5e-4 l -0.17707,0.30595 z m 0.89695,0.12794 c 0.0677,0.17023 0.17275,0.38476 0.32865,0.58498 h -0.31289 l -0.35414,4.7e-4 z m -1.11343,0.008 0.0487,0.0844 0.28414,0.49274 -0.46631,4.7e-4 h -0.12933 l -0.0802,-4.7e-4 c 0.11356,-0.14375 0.24732,-0.34212 0.34301,-0.5771 z m -1.36418,0.83252 0.29944,4.7e-4 c 0.42594,0.41544 0.62723,0.98715 0.69485,1.21725 l -0.15251,0.26375 c -0.12054,-0.36103 -0.37592,-0.97361 -0.84178,-1.48147 z m 0.49505,0 0.39216,4.7e-4 c 0.20632,0.24207 0.33122,0.52229 0.39911,0.71153 l -0.19516,0.33792 c -0.0885,-0.26079 -0.27022,-0.68993 -0.59611,-1.04992 z m 0.53585,0 h 0.66611 l -0.20767,0.36017 -0.12978,0.22482 c -0.0677,-0.17016 -0.17313,-0.38477 -0.32866,-0.58499 z m 1.10879,0 0.67584,4.7e-4 c -0.11357,0.14374 -0.24685,0.34212 -0.34255,0.5771 l -0.032,-0.0552 -0.20349,-0.35184 z m 0.82232,0 h 0.0246 0.36574 c -0.18162,0.20694 -0.46252,0.57913 -0.61141,1.04157 l -0.19608,-0.33977 c 0.10655,-0.29992 0.28723,-0.54841 0.41718,-0.7018 z m 0.58405,0 0.30408,4.7e-4 c -0.25238,0.28491 -0.65482,0.81249 -0.86171,1.46988 l -0.14973,-0.25958 c 0.14689,-0.57693 0.54205,-1.03739 0.70736,-1.21077 z m -1.62747,0.12747 0.33745,0.58592 c -0.18116,-0.0265 -0.41957,-0.0429 -0.67074,-0.008 l 0.12515,-0.21693 z m -0.0616,0.67028 c 0.18311,-0.002 0.34876,0.0193 0.47234,0.0417 1.5e-4,3e-5 3.3e-4,-3e-5 4.6e-4,0 v 4.7e-4 l 0.0404,0.0695 0.15481,0.2684 c -0.26993,-0.0538 -0.73274,-0.11069 -1.20752,-0.009 l 0.19608,-0.33978 c 0.11738,-0.0216 0.2335,-0.0306 0.34349,-0.0315 z m -0.004,0.45705 c 0.33509,-0.002 0.62259,0.0556 0.76809,0.0909 l 0.0306,0.0528 0.12098,0.21091 c -0.37285,-0.0761 -1.0309,-0.16101 -1.7035,-0.0116 l 0.14276,-0.24753 0.007,-0.0116 c 0.2149,-0.0605 0.43306,-0.083 0.63412,-0.0839 z"
         inkscape:export-filename="/home/dormant/Documents/circle38764.png"
         inkscape:export-xdpi="299.96655"
         inkscape:export-ydpi="299.96655" />
    </g>
    <rect
       style="fill:#f7971c;fill-opacity:1;stroke:#000000;stroke-width:0.1;stroke-miterlimit:4;stroke-dasharray:none"
       id="rect169812"
       width="3.2765412"
       height="3.2765412"
       x="193.32848"
       y="121.58682"
       inkscape:export-filename="/home/dormant/Documents/circle38764.png"
       inkscape:export-xdpi="299.96655"
       inkscape:export-ydpi="299.96655" />
    <rect
       style="fill:#8b63d6;fill-opacity:1;stroke:#000000;stroke-width:0.1;stroke-miterlimit:4;stroke-dasharray:none"
       id="rect170041"
       width="3.2765412"
       height="3.2765412"
       x="196.60501"
       y="-124.86337"
       transform="scale(1,-1)"
       inkscape:export-filename="/home/dormant/Documents/circle38764.png"
       inkscape:export-xdpi="299.96655"
       inkscape:export-ydpi="299.96655" />
    <rect
       style="fill:#50b34a;fill-opacity:1;stroke:#000000;stroke-width:0.1;stroke-miterlimit:4;stroke-dasharray:none"
       id="rect170043"
       width="3.2765412"
       height="3.2765412"
       x="199.88155"
       y="121.58682"
       inkscape:export-filename="/home/dormant/Documents/circle38764.png"
       inkscape:export-xdpi="299.96655"
       inkscape:export-ydpi="299.96655" />
    <rect
       style="fill:#ececec;fill-opacity:1;stroke:#000000;stroke-width:0.1;stroke-miterlimit:4;stroke-dasharray:none"
       id="rect170045"
       width="3.2765412"
       height="3.2765412"
       x="203.15808"
       y="121.58682"
       inkscape:export-filename="/home/dormant/Documents/circle38764.png"
       inkscape:export-xdpi="299.96655"
       inkscape:export-ydpi="299.96655" />
    <rect
       style="fill:#d43437;fill-opacity:1;stroke:#000000;stroke-width:0.1;stroke-miterlimit:4;stroke-dasharray:none;fill-rule:nonzero"
       id="rect170047"
       width="3.2765412"
       height="3.2765412"
       x="206.43462"
       y="121.58682"
       inkscape:export-filename="/home/dormant/Documents/circle38764.png"
       inkscape:export-xdpi="299.96655"
       inkscape:export-ydpi="299.96655" />
    <rect
       style="fill:#ebe121;fill-opacity:1;stroke:#000000;stroke-width:0.1;stroke-miterlimit:4;stroke-dasharray:none"
       id="rect170049"
       width="3.2765412"
       height="3.2765412"
       x="209.71115"
       y="121.58682"
       inkscape:export-filename="/home/dormant/Documents/circle38764.png"
       inkscape:export-xdpi="299.96655"
       inkscape:export-ydpi="299.96655" />
    <rect
       style="fill:#2d71c8;fill-opacity:1;stroke:#000000;stroke-width:0.1;stroke-miterlimit:4;stroke-dasharray:none"
       id="rect170051"
       width="3.2765412"
       height="3.2765412"
       x="212.98769"
       y="121.58682"
       inkscape:export-filename="/home/dormant/Documents/circle38764.png"
       inkscape:export-xdpi="299.96655"
       inkscape:export-ydpi="299.96655" />
    <rect
       style="fill:#333333;fill-opacity:1;stroke:#000000;stroke-width:0.1;stroke-miterlimit:4;stroke-dasharray:none"
       id="rect170053"
       width="3.2765412"
       height="3.2765412"
       x="216.26422"
       y="121.58682"
       inkscape:export-filename="/home/dormant/Documents/circle38764.png"
       inkscape:export-xdpi="299.96655"
       inkscape:export-ydpi="299.96655" />
    <text
       xml:space="preserve"
       style="font-style:normal;font-weight:normal;font-size:1.84663px;line-height:1.25;font-family:sans-serif;fill:#000000;fill-opacity:1;stroke:none;stroke-width:0.0461657"
       x="220.68391"
       y="123.73688"
       id="text220459"
       inkscape:export-filename="/home/dormant/Documents/circle38764.png"
       inkscape:export-xdpi="299.96655"
       inkscape:export-ydpi="299.96655"><tspan
         sodipodi:role="line"
         id="tspan220457"
         style="stroke-width:0.0461657"
         x="220.68391"
         y="123.73688">база</tspan></text>
    <text
       xml:space="preserve"
       style="font-style:normal;font-weight:normal;font-size:1.84663px;line-height:1.25;font-family:sans-serif;fill:#000000;fill-opacity:1;stroke:none;stroke-width:0.0461657"
       x="220.53937"
       y="130.14569"
       id="text224183"
       inkscape:export-filename="/home/dormant/Documents/circle38764.png"
       inkscape:export-xdpi="299.96655"
       inkscape:export-ydpi="299.96655"><tspan
         sodipodi:role="line"
         id="tspan224181"
         style="stroke-width:0.0461657"
         x="220.53937"
         y="130.14569">детали</tspan></text>
    <text
       xml:space="preserve"
       style="font-style:normal;font-weight:normal;font-size:1.84663px;line-height:1.25;font-family:sans-serif;fill:#000000;fill-opacity:1;stroke:none;stroke-width:0.0461657"
       x="220.68904"
       y="133.55194"
       id="text224187"
       inkscape:export-filename="/home/dormant/Documents/circle38764.png"
       inkscape:export-xdpi="299.96655"
       inkscape:export-ydpi="299.96655"><tspan
         sodipodi:role="line"
         id="tspan224185"
         style="stroke-width:0.0461657"
         x="220.68904"
         y="133.55194">текст</tspan></text>
    <rect
       style="fill:#b67d34;fill-opacity:1;stroke:#000000;stroke-width:0.1;stroke-miterlimit:4;stroke-dasharray:none"
       id="rect228039"
       width="3.2765412"
       height="3.2765412"
       x="193.32848"
       y="128.13992"
       inkscape:export-filename="/home/dormant/Documents/circle38764.png"
       inkscape:export-xdpi="299.96655"
       inkscape:export-ydpi="299.96655" />
    <rect
       style="fill:#68568a;fill-opacity:1;stroke:#000000;stroke-width:0.1;stroke-miterlimit:4;stroke-dasharray:none"
       id="rect228041"
       width="3.2765412"
       height="3.2765412"
       x="196.60501"
       y="-131.41647"
       transform="scale(1,-1)"
       inkscape:export-filename="/home/dormant/Documents/circle38764.png"
       inkscape:export-xdpi="299.96655"
       inkscape:export-ydpi="299.96655" />
    <rect
       style="fill:#358330;fill-opacity:1;stroke:#000000;stroke-width:0.1;stroke-miterlimit:4;stroke-dasharray:none"
       id="rect228043"
       width="3.2765412"
       height="3.2765412"
       x="199.88155"
       y="128.13992"
       inkscape:export-filename="/home/dormant/Documents/circle38764.png"
       inkscape:export-xdpi="299.96655"
       inkscape:export-ydpi="299.96655" />
    <rect
       style="fill:#b3b3b3;fill-opacity:1;stroke:#000000;stroke-width:0.1;stroke-miterlimit:4;stroke-dasharray:none"
       id="rect228045"
       width="3.2765412"
       height="3.2765412"
       x="203.15808"
       y="128.13992"
       inkscape:export-filename="/home/dormant/Documents/circle38764.png"
       inkscape:export-xdpi="299.96655"
       inkscape:export-ydpi="299.96655" />
    <rect
       style="fill:#7f2527;fill-opacity:1;stroke:#000000;stroke-width:0.1;stroke-miterlimit:4;stroke-dasharray:none"
       id="rect228047"
       width="3.2765412"
       height="3.2765412"
       x="206.43462"
       y="128.13992"
       inkscape:export-filename="/home/dormant/Documents/circle38764.png"
       inkscape:export-xdpi="299.96655"
       inkscape:export-ydpi="299.96655" />
    <rect
       style="fill:#a59f32;fill-opacity:1;stroke:#000000;stroke-width:0.1;stroke-miterlimit:4;stroke-dasharray:none"
       id="rect228049"
       width="3.2765412"
       height="3.2765412"
       x="209.71115"
       y="128.13992"
       inkscape:export-filename="/home/dormant/Documents/circle38764.png"
       inkscape:export-xdpi="299.96655"
       inkscape:export-ydpi="299.96655" />
    <rect
       style="fill:#1e4b84;fill-opacity:1;stroke:#000000;stroke-width:0.1;stroke-miterlimit:4;stroke-dasharray:none"
       id="rect228051"
       width="3.2765412"
       height="3.2765412"
       x="212.98769"
       y="128.13992"
       inkscape:export-filename="/home/dormant/Documents/circle38764.png"
       inkscape:export-xdpi="299.96655"
       inkscape:export-ydpi="299.96655" />
    <rect
       style="fill:#1a1a1a;fill-opacity:1;stroke:#000000;stroke-width:0.1;stroke-miterlimit:4;stroke-dasharray:none"
       id="rect228053"
       width="3.2765412"
       height="3.2765412"
       x="216.26422"
       y="128.13992"
       inkscape:export-filename="/home/dormant/Documents/circle38764.png"
       inkscape:export-xdpi="299.96655"
       inkscape:export-ydpi="299.96655" />
    <rect
       style="fill:#939a9e;fill-opacity:1;stroke:#000000;stroke-width:0.1;stroke-miterlimit:4;stroke-dasharray:none"
       id="rect236135"
       width="3.2765412"
       height="3.2765412"
       x="194.30969"
       y="150.1998"
       inkscape:export-filename="/home/dormant/Documents/circle38764.png"
       inkscape:export-xdpi="299.96655"
       inkscape:export-ydpi="299.96655" />
    <text
       xml:space="preserve"
       style="font-style:normal;font-weight:normal;font-size:1.84663px;line-height:1.25;font-family:sans-serif;fill:#000000;fill-opacity:1;stroke:none;stroke-width:0.0461657"
       x="198.51988"
       y="152.35333"
       id="text236139"
       inkscape:export-filename="/home/dormant/Documents/circle38764.png"
       inkscape:export-xdpi="299.96655"
       inkscape:export-ydpi="299.96655"><tspan
         sodipodi:role="line"
         id="tspan236137"
         style="stroke-width:0.0461657"
         x="198.51988"
         y="152.35333">база</tspan></text>
    <text
       xml:space="preserve"
       style="font-style:normal;font-weight:normal;font-size:1.84663px;line-height:1.25;font-family:sans-serif;fill:#000000;fill-opacity:1;stroke:none;stroke-width:0.0461657"
       x="198.37534"
       y="155.48558"
       id="text236143"
       inkscape:export-filename="/home/dormant/Documents/circle38764.png"
       inkscape:export-xdpi="299.96655"
       inkscape:export-ydpi="299.96655"><tspan
         sodipodi:role="line"
         id="tspan236141"
         style="stroke-width:0.0461657"
         x="198.37534"
         y="155.48558">детали</tspan></text>
    <text
       xml:space="preserve"
       style="font-style:normal;font-weight:normal;font-size:1.84663px;line-height:1.25;font-family:sans-serif;fill:#000000;fill-opacity:1;stroke:none;stroke-width:0.0461657"
       x="198.52501"
       y="158.89185"
       id="text236147"
       inkscape:export-filename="/home/dormant/Documents/circle38764.png"
       inkscape:export-xdpi="299.96655"
       inkscape:export-ydpi="299.96655"><tspan
         sodipodi:role="line"
         id="tspan236145"
         style="stroke-width:0.0461657"
         x="198.52501"
         y="158.89185">текст</tspan></text>
    <rect
       style="fill:#626b6e;fill-opacity:1;stroke:#000000;stroke-width:0.1;stroke-miterlimit:4;stroke-dasharray:none"
       id="rect236149"
       width="3.2765412"
       height="3.2765412"
       x="194.30969"
       y="153.47635"
       inkscape:export-filename="/home/dormant/Documents/circle38764.png"
       inkscape:export-xdpi="299.96655"
       inkscape:export-ydpi="299.96655" />
    <rect
       style="fill:#e7f5fa;fill-opacity:1;stroke:#000000;stroke-width:0.1;stroke-miterlimit:4;stroke-dasharray:none"
       id="rect236151"
       width="3.2765412"
       height="3.2765412"
       x="194.30969"
       y="156.7529"
       inkscape:export-filename="/home/dormant/Documents/circle38764.png"
       inkscape:export-xdpi="299.96655"
       inkscape:export-ydpi="299.96655" />
    <rect
       style="fill:#fad3a0;fill-opacity:1;stroke:#000000;stroke-width:0.1;stroke-miterlimit:4;stroke-dasharray:none"
       id="rect4259"
       width="3.2765412"
       height="3.2765412"
       x="193.32848"
       y="124.86337"
       inkscape:export-filename="/home/dormant/Documents/circle38764.png"
       inkscape:export-xdpi="299.96655"
       inkscape:export-ydpi="299.96655" />
    <rect
       style="fill:#d3c1f5;fill-opacity:1;stroke:#000000;stroke-width:0.1;stroke-miterlimit:4;stroke-dasharray:none"
       id="rect4261"
       width="3.2765412"
       height="3.2765412"
       x="196.60501"
       y="-128.13992"
       transform="scale(1,-1)"
       inkscape:export-filename="/home/dormant/Documents/circle38764.png"
       inkscape:export-xdpi="299.96655"
       inkscape:export-ydpi="299.96655" />
    <rect
       style="fill:#bff2bc;fill-opacity:1;stroke:#000000;stroke-width:0.1;stroke-miterlimit:4;stroke-dasharray:none"
       id="rect4263"
       width="3.2765412"
       height="3.2765412"
       x="199.88155"
       y="124.86337"
       inkscape:export-filename="/home/dormant/Documents/circle38764.png"
       inkscape:export-xdpi="299.96655"
       inkscape:export-ydpi="299.96655" />
    <rect
       style="fill:#ffffff;fill-opacity:1;stroke:#000000;stroke-width:0.1;stroke-miterlimit:4;stroke-dasharray:none"
       id="rect4265"
       width="3.2765412"
       height="3.2765412"
       x="203.15808"
       y="124.86337"
       inkscape:export-filename="/home/dormant/Documents/circle38764.png"
       inkscape:export-xdpi="299.96655"
       inkscape:export-ydpi="299.96655" />
    <rect
       style="fill:#ffaaaa;fill-opacity:1;stroke:#000000;stroke-width:0.1;stroke-miterlimit:4;stroke-dasharray:none"
       id="rect4267"
       width="3.2765412"
       height="3.2765412"
       x="206.43462"
       y="124.86337"
       inkscape:export-filename="/home/dormant/Documents/circle38764.png"
       inkscape:export-xdpi="299.96655"
       inkscape:export-ydpi="299.96655" />
    <rect
       style="fill:#faf591;fill-opacity:1;stroke:#000000;stroke-width:0.1;stroke-miterlimit:4;stroke-dasharray:none"
       id="rect4269"
       width="3.2765412"
       height="3.2765412"
       x="209.71115"
       y="124.86337"
       inkscape:export-filename="/home/dormant/Documents/circle38764.png"
       inkscape:export-xdpi="299.96655"
       inkscape:export-ydpi="299.96655" />
    <rect
       style="fill:#a5c8f3;fill-opacity:1;stroke:#000000;stroke-width:0.1;stroke-miterlimit:4;stroke-dasharray:none"
       id="rect4271"
       width="3.2765412"
       height="3.2765412"
       x="212.98769"
       y="124.86337"
       inkscape:export-filename="/home/dormant/Documents/circle38764.png"
       inkscape:export-xdpi="299.96655"
       inkscape:export-ydpi="299.96655" />
    <rect
       style="fill:#a8a0a0;fill-opacity:1;stroke:#000000;stroke-width:0.1;stroke-miterlimit:4;stroke-dasharray:none"
       id="rect4273"
       width="3.2765412"
       height="3.2765412"
       x="216.26422"
       y="124.86337"
       inkscape:export-filename="/home/dormant/Documents/circle38764.png"
       inkscape:export-xdpi="299.96655"
       inkscape:export-ydpi="299.96655" />
    <text
       xml:space="preserve"
       style="font-style:normal;font-weight:normal;font-size:1.84663px;line-height:1.25;font-family:sans-serif;fill:#000000;fill-opacity:1;stroke:none;stroke-width:0.0461657"
       x="220.68391"
       y="127.01342"
       id="text4277"
       inkscape:export-filename="/home/dormant/Documents/circle38764.png"
       inkscape:export-xdpi="299.96655"
       inkscape:export-ydpi="299.96655"><tspan
         sodipodi:role="line"
         id="tspan4275"
         style="stroke-width:0.0461657"
         x="220.68391"
         y="127.01342">заголовки</tspan></text>
    <rect
       style="fill:#fff4e5;fill-opacity:1;stroke:#000000;stroke-width:0.1;stroke-miterlimit:4;stroke-dasharray:none"
       id="rect5130"
       width="3.2765412"
       height="3.2765412"
       x="193.32848"
       y="131.40964"
       inkscape:export-filename="/home/dormant/Documents/circle38764.png"
       inkscape:export-xdpi="299.96655"
       inkscape:export-ydpi="299.96655" />
    <rect
       style="fill:#f4eefe;fill-opacity:1;stroke:#000000;stroke-width:0.1;stroke-miterlimit:4;stroke-dasharray:none"
       id="rect5132"
       width="3.2765412"
       height="3.2765412"
       x="196.60501"
       y="-134.68619"
       transform="scale(1,-1)"
       inkscape:export-filename="/home/dormant/Documents/circle38764.png"
       inkscape:export-xdpi="299.96655"
       inkscape:export-ydpi="299.96655" />
    <rect
       style="fill:#e4f6e3;fill-opacity:1;stroke:#000000;stroke-width:0.1;stroke-miterlimit:4;stroke-dasharray:none"
       id="rect5134"
       width="3.2765412"
       height="3.2765412"
       x="199.88155"
       y="131.40964"
       inkscape:export-filename="/home/dormant/Documents/circle38764.png"
       inkscape:export-xdpi="299.96655"
       inkscape:export-ydpi="299.96655" />
    <rect
       style="fill:#ffffff;fill-opacity:1;stroke:#000000;stroke-width:0.1;stroke-miterlimit:4;stroke-dasharray:none"
       id="rect5136"
       width="3.2765412"
       height="3.2765412"
       x="203.15808"
       y="131.40964"
       inkscape:export-filename="/home/dormant/Documents/circle38764.png"
       inkscape:export-xdpi="299.96655"
       inkscape:export-ydpi="299.96655" />
    <rect
       style="fill:#ffe3e3;fill-opacity:1;stroke:#000000;stroke-width:0.1;stroke-miterlimit:4;stroke-dasharray:none"
       id="rect5138"
       width="3.2765412"
       height="3.2765412"
       x="206.43462"
       y="131.40964"
       inkscape:export-filename="/home/dormant/Documents/circle38764.png"
       inkscape:export-xdpi="299.96655"
       inkscape:export-ydpi="299.96655" />
    <rect
       style="fill:#fffdd7;fill-opacity:1;stroke:#000000;stroke-width:0.1;stroke-miterlimit:4;stroke-dasharray:none"
       id="rect5140"
       width="3.2765412"
       height="3.2765412"
       x="209.71115"
       y="131.40964"
       inkscape:export-filename="/home/dormant/Documents/circle38764.png"
       inkscape:export-xdpi="299.96655"
       inkscape:export-ydpi="299.96655" />
    <rect
       style="fill:#dfebfa;fill-opacity:1;stroke:#000000;stroke-width:0.1;stroke-miterlimit:4;stroke-dasharray:none"
       id="rect5142"
       width="3.2765412"
       height="3.2765412"
       x="212.98769"
       y="131.40964"
       inkscape:export-filename="/home/dormant/Documents/circle38764.png"
       inkscape:export-xdpi="299.96655"
       inkscape:export-ydpi="299.96655" />
    <rect
       style="fill:#dcdcdc;fill-opacity:1;stroke:#000000;stroke-width:0.1;stroke-miterlimit:4;stroke-dasharray:none"
       id="rect5144"
       width="3.2765412"
       height="3.2765412"
       x="216.26422"
       y="131.40964"
       inkscape:export-filename="/home/dormant/Documents/circle38764.png"
       inkscape:export-xdpi="299.96655"
       inkscape:export-ydpi="299.96655" />
    <g
       id="g11905"
       inkscape:export-filename="templates/patron.png"
       inkscape:export-xdpi="200"
       inkscape:export-ydpi="200">
      <path
         id="path9573"
         style="fill:#ffe3e3;fill-opacity:1;stroke:none;stroke-width:0.108566;stroke-dasharray:none;stroke-dashoffset:0"
         d="m 11.153886,149.63566 v 40.84453 c 0,1.662 1.338336,2.99982 3.000334,2.99982 h 56.688013 c 1.661998,0 3.000333,-1.33782 3.000333,-2.99982 v -40.84453 z" />
      <path
         id="path76677"
         style="fill:none;fill-opacity:1;stroke:#000000;stroke-width:0.264583;stroke-miterlimit:4;stroke-dasharray:none"
         d="m 14.154036,105.79162 h 56.68838 c 1.662,0 3,1.338 3,3 v 81.68839 c 0,1.662 -1.338,3 -3,3 h -56.68838 c -1.662,0 -3,-1.338 -3,-3 v -81.68839 c 0,-1.662 1.338,-3 3,-3 z" />
      <path
         id="path76679"
         style="fill:#d43437;fill-opacity:1;stroke:#000000;stroke-width:0.264583;stroke-miterlimit:4;stroke-dasharray:none"
         d="m 14.143551,105.792 c -1.657145,0.006 -2.989481,1.34131 -2.989481,2.99982 v 3.67936 h 62.688162 v -3.67936 c 0,-0.20775 -0.02063,-0.41052 -0.06046,-0.60616 -0.179253,-0.88023 -0.741733,-1.61827 -1.506885,-2.03295 -1.34e-4,-8e-5 -3.81e-4,7e-5 -5.15e-4,0 -0.08504,-0.0461 -0.172205,-0.0883 -0.262001,-0.1261 -0.179441,-0.0756 -0.368311,-0.13432 -0.563788,-0.17415 -1.67e-4,-3e-5 -3.52e-4,4e-5 -5.18e-4,0 -0.195655,-0.0398 -0.397897,-0.0605 -0.605648,-0.0605 z" />
      <path
         style="fill:#7f2527;fill-opacity:1;stroke:#000000;stroke-width:0.264583px;stroke-linecap:butt;stroke-linejoin:miter;stroke-opacity:1"
         d="m 63.818304,112.47107 -3.588459,3.58846 H 24.76646 l -3.588461,-3.58846 z"
         id="path76705" />
      <path
         id="path168847"
         style="fill:#7f2527;fill-opacity:1;stroke:#000000;stroke-width:0.264583"
         d="m 72.011336,112.47086 v 77.47021 c -0.01426,0.8075 -0.665281,1.45876 -1.472779,1.47329 H 14.485132 c -0.828556,9e-5 -1.500257,-0.67161 -1.500165,-1.50016 V 112.47118 H 11.15407 v 78.00939 c 0,0.12782 0.0099,0.25304 0.02584,0.3762 0.0024,0.0195 0.006,0.0385 0.0088,0.0579 0.01764,0.11782 0.03974,0.23399 0.0708,0.34675 0.06841,0.24839 0.168236,0.48381 0.293006,0.7028 h -0.0062 c 0.515016,0.90642 1.486475,1.51618 2.607592,1.51618 h 56.688529 c 1.121119,0 2.0931,-0.60976 2.608109,-1.51618 h -0.0067 c 0.124769,-0.21899 0.224597,-0.45441 0.293005,-0.7028 0.0311,-0.11276 0.0532,-0.22893 0.0708,-0.34675 0.003,-0.0193 0.0058,-0.0384 0.0088,-0.0579 0.0159,-0.12316 0.02585,-0.24838 0.02585,-0.3762 v -78.00919 z"
         sodipodi:nodetypes="cccccccsccsccsscccccscc" />
      <path
         id="path76683"
         style="fill:#d43437;fill-opacity:1;stroke:#000000;stroke-width:0.264583;stroke-miterlimit:4;stroke-dasharray:none"
         d="m 11.154036,146.62036 v 6.03064 h 62.688486 v -6.03064 z"
         sodipodi:nodetypes="ccccc" />
      <path
         id="path6417-3"
         style="fill:#ffaaaa;fill-opacity:1;stroke:#000000;stroke-width:0.264583;stroke-dasharray:none"
         d="m 16.320513,147.3653 v 4.54103 h 50.475894 v -4.54103 z"
         sodipodi:nodetypes="ccccc" />
      <path
         id="rect85231"
         style="fill:#cccccc;fill-opacity:1;stroke:#000000;stroke-width:0.264583;stroke-miterlimit:4;stroke-dasharray:none"
         d="m 69.907071,140.89373 -8.7421,8.74211 8.7421,8.74158 3.935161,-3.93516 v -9.61336 z" />
      <path
         id="rect85233"
         style="fill:#999999;fill-opacity:1;stroke:#000000;stroke-width:0.264583;stroke-miterlimit:4;stroke-dasharray:none"
         d="m 69.907071,143.50546 -6.129859,6.13038 6.129859,6.12986 3.935161,-3.93465 v -4.39043 z" />
      <path
         id="rect85567"
         style="fill:#cccccc;fill-opacity:1;stroke:#000000;stroke-width:0.264583;stroke-miterlimit:4;stroke-dasharray:none"
         d="m 15.08923,140.89373 -3.93516,3.93517 v 9.61336 l 3.93516,3.93516 8.742102,-8.74158 z" />
      <path
         id="rect85569"
         style="fill:#999999;fill-opacity:1;stroke:#000000;stroke-width:0.264583;stroke-miterlimit:4;stroke-dasharray:none"
         d="m 15.08923,143.50546 -3.93516,3.93568 v 4.3894 l 3.93516,3.93516 6.130375,-6.12986 z" />
      <path
         id="path6419-6"
         style="fill:#ffaaaa;fill-opacity:1;stroke:#000000;stroke-width:0.264583;stroke-dasharray:none"
         d="M 14.501958 106.58574 C 13.091549 106.58574 11.956377 107.72143 11.956377 109.13184 L 11.956377 111.67742 L 14.501958 111.67742 L 16.873906 111.67742 L 20.958411 111.67742 L 64.005396 111.67742 L 68.089901 111.67742 L 70.461849 111.67742 L 73.00743 111.67742 L 73.00743 109.13184 C 73.00743 107.72143 71.872258 106.58574 70.461849 106.58574 L 64.005396 106.58574 L 20.958411 106.58574 L 14.501958 106.58574 z " />
      <text
         xml:space="preserve"
         style="font-style:normal;font-weight:normal;font-size:4.55959px;line-height:1.25;font-family:sans-serif;fill:#000000;fill-opacity:1;stroke:none;stroke-width:0.11399"
         x="26.964821"
         y="109.93417"
         id="text76739"><tspan
           sodipodi:role="line"
           id="tspan76737"
           style="stroke-width:0.11399"
           x="26.964821"
           y="109.93417">покровитель</tspan></text>
    </g>
    <g
       id="g11889"
       inkscape:export-filename="templates/plan.png"
       inkscape:export-xdpi="200"
       inkscape:export-ydpi="200">
      <path
         id="path11600"
         style="fill:#ffe3e3;fill-opacity:1;stroke:none;stroke-width:0.108566;stroke-dasharray:none;stroke-dashoffset:0"
         d="m 83.549113,167.59783 3.5e-4,22.42688 c 2.6e-5,1.662 1.338336,2.99982 3.000334,2.99982 h 56.688013 c 1.662,0 3.00033,-1.33782 3.00033,-2.99982 l -3.5e-4,-22.42688 z"
         sodipodi:nodetypes="csssscc" />
      <path
         id="path11602"
         style="fill:#ffe3e3;fill-opacity:1;stroke:none;stroke-width:0.108566;stroke-dasharray:none;stroke-dashoffset:0"
         d="m 83.549108,128.93546 1.5e-4,-20.59969 c 1.2e-5,-1.662 1.338336,-2.99982 3.000334,-2.99982 h 56.688018 c 1.662,0 3.00033,1.33782 3.00033,2.99982 l -1.5e-4,20.59969 z"
         sodipodi:nodetypes="csssscc" />
      <path
         id="path76729"
         style="fill:none;fill-opacity:1;stroke:#000000;stroke-width:0.264583;stroke-miterlimit:4;stroke-dasharray:none"
         d="m 86.54941,105.33595 h 56.68838 c 1.662,0 3,1.338 3,3 v 81.68839 c 0,1.662 -1.338,3 -3,3 H 86.54941 c -1.662,0 -3,-1.338 -3,-3 v -81.68839 c 0,-1.662 1.338,-3 3,-3 z" />
      <path
         id="path76707"
         style="fill:#d43437;fill-opacity:1;stroke:#000000;stroke-width:0.264583;stroke-miterlimit:4;stroke-dasharray:none"
         d="m 86.539269,105.33633 c -1.657152,0.006 -2.989998,1.34131 -2.989998,2.99982 v 3.67936 h 62.688679 v -3.67936 c 0,-1.0386 -0.52267,-1.95121 -1.32033,-2.48925 -1.2e-4,-9e-5 -3.9e-4,8e-5 -5.2e-4,0 -0.15957,-0.10761 -0.32993,-0.20026 -0.50953,-0.27596 -0.17959,-0.0757 -0.36813,-0.13432 -0.56379,-0.17415 -0.19565,-0.0398 -0.39841,-0.0605 -0.60616,-0.0605 z" />
      <path
         id="path76709"
         style="fill:#d43437;stroke:#000000;stroke-width:0.264583;stroke-miterlimit:4;stroke-dasharray:none;fill-opacity:1"
         d="m 85.343995,129.85098 v 4.67827 4.19767 4.46175 4.19767 4.15272 4.19768 4.06332 4.19819 2.68407 h 5.088578 v -0.45062 -2.04742 -4.56974 -3.69125 -4.57026 -3.78013 -4.57027 -4.08916 -4.57026 -4.05918 -0.43305 z" />
      <path
         id="path76713"
         style="fill:#d4aa00;fill-opacity:1;stroke:#000000;stroke-width:0.264583;stroke-linecap:butt;stroke-linejoin:miter;stroke-miterlimit:4;stroke-dasharray:none;stroke-opacity:1"
         d="m 83.549271,129.85098 v 0.4222 36.40914 h 1.815909 v -36.40914 0 -0.4222 z m 6.871932,0 v 0.4222 0 35.05677 0 1.35237 h 1.815906 v -1.35237 0 -35.05677 0 -0.4222 z"
         sodipodi:nodetypes="ccccccccccccccccccccc" />
      <circle
         style="fill:#999999;fill-opacity:1;stroke:#000000;stroke-width:0.264583;stroke-miterlimit:4;stroke-dasharray:none"
         id="circle76715"
         cx="87.968285"
         cy="135.63097"
         r="3.360584" />
      <circle
         style="fill:#999999;fill-opacity:1;stroke:#000000;stroke-width:0.264583;stroke-miterlimit:4;stroke-dasharray:none"
         id="circle76717"
         cx="87.968285"
         cy="144.0547"
         r="3.360584" />
      <circle
         style="fill:#999999;fill-opacity:1;stroke:#000000;stroke-width:0.264583;stroke-miterlimit:4;stroke-dasharray:none"
         id="circle76719"
         cx="87.968285"
         cy="152.47844"
         r="3.360584" />
      <circle
         style="fill:#999999;fill-opacity:1;stroke:#000000;stroke-width:0.264583;stroke-miterlimit:4;stroke-dasharray:none"
         id="circle76721"
         cx="87.968285"
         cy="160.90216"
         r="3.360584" />
      <path
         style="fill:#7f2527;fill-opacity:1;stroke:#000000;stroke-width:0.264583px;stroke-linecap:butt;stroke-linejoin:miter;stroke-opacity:1"
         d="m 132.08759,129.85098 -3.58846,3.58846 H 107.6118 l -3.58846,-3.58846 z"
         id="path76725"
         sodipodi:nodetypes="ccccc" />
      <path
         id="path6419-6-7"
         style="fill:#ffaaaa;fill-opacity:1;stroke:#000000;stroke-width:0.264583;stroke-dasharray:none"
         d="m 86.897607,106.12987 c -1.41041,0 -2.54558,1.13569 -2.54558,2.5461 v 2.54558 h 2.54558 2.37195 4.0845 43.046983 4.0845 2.37195 2.54558 v -2.54558 c 0,-1.41041 -1.13517,-2.5461 -2.54558,-2.5461 h -6.45645 -43.046983 z" />
      <text
         xml:space="preserve"
         style="font-style:normal;font-weight:normal;font-size:4.55959px;line-height:1.25;font-family:sans-serif;fill:#000000;fill-opacity:1;stroke:none;stroke-width:0.11399"
         x="107.1292"
         y="110.03414"
         id="text76743"><tspan
           sodipodi:role="line"
           id="tspan76741"
           style="stroke-width:0.11399"
           x="107.1292"
           y="110.03414">план</tspan></text>
      <path
         id="path174095"
         style="fill:#7f2527;fill-opacity:1;stroke:#000000;stroke-width:0.264583"
         d="m 83.54971,112.01499 v 16.00471 h 1.830896 v -16.00471 z m 60.85727,0 v 77.4702 c -0.0143,0.80751 -0.66528,1.45877 -1.47278,1.4733 H 86.880772 c -0.828556,9e-5 -1.500259,-0.67162 -1.500166,-1.50017 V 168.51335 H 83.54971 v 21.51135 c 0,0.12782 0.0099,0.25304 0.02584,0.3762 0.0024,0.0195 0.006,0.0385 0.0088,0.0579 0.01764,0.11782 0.03974,0.23399 0.07079,0.34675 0.06841,0.24839 0.168236,0.48381 0.293008,0.7028 h -0.0062 c 0.515017,0.90642 1.486474,1.51618 2.607593,1.51618 h 56.688529 c 1.12111,0 2.09311,-0.60976 2.60811,-1.51618 h -0.007 c 0.12477,-0.21899 0.2246,-0.45441 0.29301,-0.7028 0.0311,-0.11276 0.0532,-0.22893 0.0708,-0.34675 0.003,-0.0193 0.006,-0.0384 0.009,-0.0579 0.0159,-0.12316 0.0258,-0.24838 0.0258,-0.3762 v -78.00919 z" />
      <path
         id="path107467"
         style="fill:#d43437;fill-opacity:1;stroke:#000000;stroke-width:0.264583"
         d="m 146.23779,166.68232 v 1.83103 H 83.549271 v -1.83103 z"
         sodipodi:nodetypes="ccccc" />
      <path
         id="path131925"
         style="fill:#d43437;fill-opacity:1;stroke:#000000;stroke-width:0.264583"
         d="m 146.23779,128.01995 v 1.83103 H 83.549271 v -1.83103 z"
         sodipodi:nodetypes="ccccc" />
    </g>
    <path
       id="path12134"
       style="fill:#999999;fill-opacity:1;stroke:#000000;stroke-width:0.264583;stroke-miterlimit:4;stroke-dasharray:none"
       d="m 213.49924,148.81028 a 9.2768421,6.2802403 0 0 0 -2.01753,3.90945 9.2768421,6.2802403 0 0 0 2.01753,3.90946 9.2768421,6.2802403 0 0 0 2.01752,-3.90946 9.2768421,6.2802403 0 0 0 -2.01752,-3.90945 z" />
  </g>
</svg>
